<?xml version="1.0" encoding="UTF-8" standalone="no"?>
<!-- Created with Inkscape (http://www.inkscape.org/) -->

<svg
   xmlns:dc="http://purl.org/dc/elements/1.1/"
   xmlns:cc="http://creativecommons.org/ns#"
   xmlns:rdf="http://www.w3.org/1999/02/22-rdf-syntax-ns#"
   xmlns:svg="http://www.w3.org/2000/svg"
   xmlns="http://www.w3.org/2000/svg"
   xmlns:sodipodi="http://sodipodi.sourceforge.net/DTD/sodipodi-0.dtd"
   xmlns:inkscape="http://www.inkscape.org/namespaces/inkscape"
   width="120"
   height="80"
   viewBox="0 0 120 80"
   id="svg2"
   version="1.1"
   inkscape:version="0.91 r13725"
   sodipodi:docname="Icon_AGOL_LeisureRecreation_120x80px.svg">
  <defs
     id="defs4" />
  <sodipodi:namedview
     id="base"
     pagecolor="#ffffff"
     bordercolor="#666666"
     borderopacity="1.0"
     inkscape:pageopacity="0.0"
     inkscape:pageshadow="2"
     inkscape:zoom="1.979899"
     inkscape:cx="32.386359"
     inkscape:cy="15.72704"
     inkscape:document-units="px"
     inkscape:current-layer="layer1"
     showgrid="false"
     units="px"
     inkscape:window-width="1806"
     inkscape:window-height="1057"
     inkscape:window-x="106"
     inkscape:window-y="-8"
     inkscape:window-maximized="1" />
  <metadata
     id="metadata7">
    <rdf:RDF>
      <cc:Work
         rdf:about="">
        <dc:format>image/svg+xml</dc:format>
        <dc:type
           rdf:resource="http://purl.org/dc/dcmitype/StillImage" />
        <dc:title />
      </cc:Work>
    </rdf:RDF>
  </metadata>
  <g
     inkscape:label="Layer 1"
     inkscape:groupmode="layer"
     id="layer1"
     transform="translate(0,-972.36216)">
    <rect
       style="opacity:1;fill:#fdbb30;fill-opacity:1"
       id="rect4136-4-5-6-2-0-6-4-6-8"
       width="120"
       height="80"
       x="0"
       y="972.36218" />
    <g
       id="g4171"
       transform="translate(-4.5401001,0.48920468)">
      <g
         style="font-style:normal;font-weight:normal;font-size:20px;line-height:125%;font-family:sans-serif;letter-spacing:0px;word-spacing:0px;fill:#1b2d38;fill-opacity:1;stroke:none;stroke-width:1px;stroke-linecap:butt;stroke-linejoin:miter;stroke-opacity:1"
         id="text4873-0-59-0-00-3-4-12">
        <path
           d="m 24.821167,1026.929 0,-8.6249 2.142334,0 0,1.4758 q 0.45227,-0.8887 1.055298,-1.3013 0.603027,-0.4205 1.436157,-0.4205 0.134888,0 0.206299,0.01 0.07935,0 0.126953,0.01 l 0.0079,2.3407 -0.769654,0 q -0.944214,0 -1.420288,0.4919 -0.476074,0.492 -0.476074,1.46 l 0,4.5624 -2.30896,0 z"
           style="font-style:normal;font-variant:normal;font-weight:bold;font-stretch:normal;font-size:16.25px;font-family:'Swis721 BT';-inkscape-font-specification:'Swis721 BT Bold';letter-spacing:-0.99999988px;fill:#1b2d38;fill-opacity:1"
           id="path4140" />
        <path
           d="m 35.389771,1024.3105 2.301025,0 q -0.349121,1.3648 -1.412354,2.1424 -1.055297,0.7696 -2.578735,0.7696 -1.872559,0 -2.967529,-1.2536 -1.094971,-1.2616 -1.094971,-3.4119 0,-2.1185 1.079102,-3.3404 1.079101,-1.222 2.95166,-1.222 1.983642,0 3.062744,1.2061 1.079101,1.1981 1.079101,3.4198 0,0.246 -0.0079,0.3729 0,0.119 -0.01587,0.2301 l -5.760498,0 q 0.04761,1.0156 0.491943,1.5314 0.452271,0.5157 1.293335,0.5157 0.595093,0 0.975952,-0.2301 0.38086,-0.238 0.603028,-0.73 z m -3.364258,-2.6025 3.395996,0 q -0.03174,-0.8728 -0.46814,-1.3251 -0.428467,-0.4602 -1.237793,-0.4602 -0.753784,0 -1.190185,0.4602 -0.428467,0.4602 -0.499878,1.3251 z"
           style="font-style:normal;font-variant:normal;font-weight:bold;font-stretch:normal;font-size:16.25px;font-family:'Swis721 BT';-inkscape-font-specification:'Swis721 BT Bold';letter-spacing:-0.99999988px;fill:#1b2d38;fill-opacity:1"
           id="path4142" />
        <path
           d="m 43.554199,1023.6758 2.277222,0 q -0.142822,1.6424 -1.19812,2.5946 -1.055298,0.9521 -2.713623,0.9521 -1.880493,0 -2.95166,-1.2219 -1.063233,-1.2298 -1.063233,-3.396 0,-2.1582 1.087036,-3.3801 1.094971,-1.2299 3.007202,-1.2299 1.674195,0 2.681885,0.8887 1.015625,0.8887 1.134644,2.4756 l -2.293091,0 q -0.09522,-0.6903 -0.484009,-1.0553 -0.388794,-0.365 -1.023559,-0.365 -0.856934,0 -1.285401,0.6744 -0.420532,0.6745 -0.420532,2.0234 0,1.2457 0.436401,1.9201 0.444336,0.6665 1.269532,0.6665 0.6427,0 1.031494,-0.3888 0.388794,-0.3888 0.507812,-1.1584 z"
           style="font-style:normal;font-variant:normal;font-weight:bold;font-stretch:normal;font-size:16.25px;font-family:'Swis721 BT';-inkscape-font-specification:'Swis721 BT Bold';letter-spacing:-0.99999988px;fill:#1b2d38;fill-opacity:1"
           id="path4144" />
        <path
           d="m 46.291382,1026.929 0,-8.6249 2.142334,0 0,1.4758 q 0.45227,-0.8887 1.055298,-1.3013 0.603027,-0.4205 1.436157,-0.4205 0.134888,0 0.206299,0.01 0.07934,0 0.126953,0.01 l 0.0079,2.3407 -0.769653,0 q -0.944214,0 -1.420288,0.4919 -0.476074,0.492 -0.476074,1.46 l 0,4.5624 -2.30896,0 z"
           style="font-style:normal;font-variant:normal;font-weight:bold;font-stretch:normal;font-size:16.25px;font-family:'Swis721 BT';-inkscape-font-specification:'Swis721 BT Bold';letter-spacing:-0.99999988px;fill:#1b2d38;fill-opacity:1"
           id="path4146" />
        <path
           d="m 56.859985,1024.3105 2.301026,0 q -0.349121,1.3648 -1.412354,2.1424 -1.055298,0.7696 -2.578735,0.7696 -1.872559,0 -2.967529,-1.2536 -1.094971,-1.2616 -1.094971,-3.4119 0,-2.1185 1.079101,-3.3404 1.079102,-1.222 2.951661,-1.222 1.983642,0 3.062744,1.2061 1.079101,1.1981 1.079101,3.4198 0,0.246 -0.0079,0.3729 0,0.119 -0.01587,0.2301 l -5.760498,0 q 0.04761,1.0156 0.491943,1.5314 0.45227,0.5157 1.293335,0.5157 0.595093,0 0.975952,-0.2301 0.380859,-0.238 0.603027,-0.73 z m -3.364257,-2.6025 3.395996,0 q -0.03174,-0.8728 -0.46814,-1.3251 -0.428467,-0.4602 -1.237793,-0.4602 -0.753784,0 -1.190186,0.4602 -0.428466,0.4602 -0.499877,1.3251 z"
           style="font-style:normal;font-variant:normal;font-weight:bold;font-stretch:normal;font-size:16.25px;font-family:'Swis721 BT';-inkscape-font-specification:'Swis721 BT Bold';letter-spacing:-0.99999988px;fill:#1b2d38;fill-opacity:1"
           id="path4148" />
        <path
           d="m 64.754639,1025.8578 q -0.436402,0.6744 -1.142578,1.0315 -0.706177,0.3491 -1.642457,0.3491 -1.253662,0 -1.936035,-0.7141 -0.674438,-0.7141 -0.674438,-2.0313 0,-1.2219 0.674438,-1.8646 0.682373,-0.6427 2.245484,-0.8807 0.357055,-0.056 0.936279,-0.127 1.467896,-0.1904 1.467896,-0.849 0,-0.5237 -0.325318,-0.7458 -0.325317,-0.2301 -1.087036,-0.2301 -0.698242,0 -1.071167,0.2777 -0.372925,0.2777 -0.372925,0.7934 l 0,0.127 -2.158203,0 0,-0.1587 q 0,-1.3251 0.936279,-2.0789 0.93628,-0.7617 2.58667,-0.7617 1.809082,0 2.769165,0.6269 0.968018,0.6268 0.968018,1.809 l 0,4.9036 q 0,0.5396 0.111084,0.8093 0.111084,0.2619 0.372925,0.3968 l 0,0.3888 -2.404175,0 q -0.119019,-0.2222 -0.182495,-0.492 -0.06348,-0.2698 -0.07141,-0.5792 z m -0.03967,-3.1738 q -0.563355,0.2618 -1.30127,0.4205 -0.72998,0.1587 -0.753784,0.1666 -0.610962,0.1746 -0.856933,0.4364 -0.238038,0.2619 -0.238038,0.7221 0,0.476 0.309449,0.7617 0.309448,0.2777 0.83313,0.2777 0.936279,0 1.467895,-0.5237 0.539551,-0.5316 0.539551,-1.4441 l 0,-0.8172 z"
           style="font-style:normal;font-variant:normal;font-weight:bold;font-stretch:normal;font-size:16.25px;font-family:'Swis721 BT';-inkscape-font-specification:'Swis721 BT Bold';letter-spacing:-0.99999988px;fill:#1b2d38;fill-opacity:1"
           id="path4150" />
        <path
           d="m 71.784424,1026.9924 q -0.317383,0.01 -0.761719,0.024 -0.436401,0.024 -0.55542,0.024 -1.325073,0 -1.817016,-0.4919 -0.484009,-0.4999 -0.484009,-1.9598 l 0,-4.6656 -1.142578,0 0,-1.6186 1.142578,0 0,-2.3566 2.285156,0 0,2.3566 1.333008,0 0,1.6186 -1.333008,0 0,4.7766 q 0,0.3412 0.150757,0.4523 0.150757,0.1032 0.618896,0.1032 l 0.563355,0 0,1.7376 z"
           style="font-style:normal;font-variant:normal;font-weight:bold;font-stretch:normal;font-size:16.25px;font-family:'Swis721 BT';-inkscape-font-specification:'Swis721 BT Bold';letter-spacing:-0.99999988px;fill:#1b2d38;fill-opacity:1"
           id="path4152" />
        <path
           d="m 72.172974,1017.344 0,-2.1027 2.30896,0 0,2.1027 -2.30896,0 z m 0,9.585 0,-8.6249 2.30896,0 0,8.6249 -2.30896,0 z"
           style="font-style:normal;font-variant:normal;font-weight:bold;font-stretch:normal;font-size:16.25px;font-family:'Swis721 BT';-inkscape-font-specification:'Swis721 BT Bold';letter-spacing:-0.99999988px;fill:#1b2d38;fill-opacity:1"
           id="path4154" />
        <path
           d="m 77.441284,1022.6046 q 0,1.2854 0.523682,1.9837 0.531616,0.6982 1.507568,0.6982 0.960083,0 1.483765,-0.6982 0.531616,-0.6983 0.531616,-1.9837 0,-1.2775 -0.523682,-1.9678 -0.523681,-0.6982 -1.491699,-0.6982 -0.975952,0 -1.507568,0.6982 -0.523682,0.6903 -0.523682,1.9678 z m -2.340698,0 q 0,-2.1503 1.166382,-3.3801 1.166382,-1.2299 3.205566,-1.2299 2.03125,0 3.197632,1.2299 1.174316,1.2298 1.174316,3.3801 0,2.1582 -1.174316,3.3881 -1.166382,1.2298 -3.197632,1.2298 -2.039184,0 -3.205566,-1.2298 -1.166382,-1.2299 -1.166382,-3.3881 z"
           style="font-style:normal;font-variant:normal;font-weight:bold;font-stretch:normal;font-size:16.25px;font-family:'Swis721 BT';-inkscape-font-specification:'Swis721 BT Bold';letter-spacing:-0.99999988px;fill:#1b2d38;fill-opacity:1"
           id="path4156" />
        <path
           d="m 84.407593,1026.929 0,-8.6249 2.261352,0 0,1.0235 q 0.484009,-0.6268 1.142578,-0.9362 0.65857,-0.3174 1.467896,-0.3174 1.428223,0 2.134399,0.7458 0.714112,0.7379 0.714112,2.2296 l 0,5.8796 -2.30896,0 0,-5.2131 q 0,-0.9283 -0.317383,-1.325 -0.309448,-0.3968 -1.015625,-0.3968 -0.817261,0 -1.293335,0.492 -0.476074,0.484 -0.476074,1.3251 l 0,5.1178 -2.30896,0 z"
           style="font-style:normal;font-variant:normal;font-weight:bold;font-stretch:normal;font-size:16.25px;font-family:'Swis721 BT';-inkscape-font-specification:'Swis721 BT Bold';letter-spacing:-0.99999988px;fill:#1b2d38;fill-opacity:1"
           id="path4158" />
      </g>
      <g
         style="font-style:normal;font-weight:normal;font-size:20px;line-height:125%;font-family:sans-serif;letter-spacing:0px;word-spacing:0px;fill:#1b2d38;fill-opacity:1;stroke:none;stroke-width:1px;stroke-linecap:butt;stroke-linejoin:miter;stroke-opacity:1"
         id="text4873-0-59-0-00-5-5-8-2">
        <path
           d="m 25.820312,1008.1951 0,-11.68759 2.404175,0 0,9.52939 5.704956,0 0,2.1582 -8.109131,0 z"
           style="font-style:normal;font-variant:normal;font-weight:bold;font-stretch:normal;font-size:16.25px;font-family:'Swis721 BT';-inkscape-font-specification:'Swis721 BT Bold';letter-spacing:-0.99999988px;fill:#1b2d38;fill-opacity:1"
           id="path4161" />
        <path
           d="m 39.36438,1005.5767 2.301025,0 q -0.349121,1.3648 -1.412353,2.1424 -1.055298,0.7696 -2.578736,0.7696 -1.872558,0 -2.967529,-1.2537 -1.094971,-1.2616 -1.094971,-3.4118 0,-2.1185 1.079102,-3.3405 1.079102,-1.2219 2.95166,-1.2219 1.983643,0 3.062744,1.2061 1.079102,1.1981 1.079102,3.4198 0,0.2459 -0.0079,0.3729 0,0.119 -0.01587,0.2301 l -5.760498,0 q 0.04761,1.0156 0.491943,1.5314 0.452271,0.5157 1.293335,0.5157 0.595093,0 0.975953,-0.2301 0.380859,-0.238 0.603027,-0.73 z m -3.364258,-2.6025 3.395996,0 q -0.03174,-0.8728 -0.468139,-1.3251 -0.428467,-0.4602 -1.237793,-0.4602 -0.753785,0 -1.190186,0.4602 -0.428467,0.4602 -0.499878,1.3251 z"
           style="font-style:normal;font-variant:normal;font-weight:bold;font-stretch:normal;font-size:16.25px;font-family:'Swis721 BT';-inkscape-font-specification:'Swis721 BT Bold';letter-spacing:-0.99999988px;fill:#1b2d38;fill-opacity:1"
           id="path4163" />
        <path
           d="m 42.363403,998.61017 0,-2.10266 2.30896,0 0,2.10266 -2.30896,0 z m 0,9.58493 0,-8.62485 2.30896,0 0,8.62485 -2.30896,0 z"
           style="font-style:normal;font-variant:normal;font-weight:bold;font-stretch:normal;font-size:16.25px;font-family:'Swis721 BT';-inkscape-font-specification:'Swis721 BT Bold';letter-spacing:-0.99999988px;fill:#1b2d38;fill-opacity:1"
           id="path4165" />
        <path
           d="m 45.243408,1005.3863 2.301026,0 q 0.03174,0.6586 0.476074,0.9839 0.444336,0.3174 1.333008,0.3174 0.674438,0 1.039428,-0.2222 0.372925,-0.2301 0.372925,-0.6427 0,-0.5872 -1.380615,-0.8807 -0.563355,-0.1191 -0.896607,-0.2063 -1.682128,-0.4285 -2.340698,-1.0157 -0.650635,-0.5871 -0.650635,-1.5869 0,-1.3251 0.952149,-2.0947 0.960083,-0.7776 2.594604,-0.7776 1.729737,0 2.713623,0.7697 0.991822,0.7696 1.055298,2.1661 l -2.245483,0 q -0.0238,-0.5475 -0.420532,-0.849 -0.388794,-0.3015 -1.087036,-0.3015 -0.65857,0 -0.983887,0.1983 -0.317383,0.1984 -0.317383,0.5951 0,0.5158 1.721802,0.9125 0.396728,0.087 0.626831,0.1428 1.721802,0.4047 2.348633,0.976 0.634765,0.5713 0.634765,1.6107 0,1.4679 -1.039428,2.2376 -1.031495,0.7696 -3.007203,0.7696 -1.785278,0 -2.792968,-0.8014 -1.007691,-0.8014 -1.007691,-2.2058 l 0,-0.095 z"
           style="font-style:normal;font-variant:normal;font-weight:bold;font-stretch:normal;font-size:16.25px;font-family:'Swis721 BT';-inkscape-font-specification:'Swis721 BT Bold';letter-spacing:-0.99999988px;fill:#1b2d38;fill-opacity:1"
           id="path4167" />
        <path
           d="m 61.302734,999.57025 0,8.62485 -2.261352,0 0,-1.0235 q -0.491944,0.6268 -1.150513,0.9442 -0.650635,0.3094 -1.467895,0.3094 -1.420288,0 -2.1344,-0.7458 -0.706177,-0.7459 -0.706177,-2.2296 l 0,-5.87955 2.30896,0 0,5.21305 q 0,0.9204 0.309449,1.3171 0.309448,0.3888 1.023559,0.3888 0.809326,0 1.285401,-0.484 0.484008,-0.492 0.484008,-1.333 l 0,-5.10195 2.30896,0 z"
           style="font-style:normal;font-variant:normal;font-weight:bold;font-stretch:normal;font-size:16.25px;font-family:'Swis721 BT';-inkscape-font-specification:'Swis721 BT Bold';letter-spacing:-0.99999988px;fill:#1b2d38;fill-opacity:1"
           id="path4169" />
        <path
           d="m 62.32605,1008.1951 0,-8.62485 2.142334,0 0,1.47585 q 0.45227,-0.8887 1.055298,-1.30129 0.603027,-0.42053 1.436157,-0.42053 0.134888,0 0.206299,0.008 0.07934,0 0.126953,0.008 l 0.0079,2.34065 -0.769653,0 q -0.944214,0 -1.420288,0.492 -0.476074,0.4919 -0.476074,1.46 l 0,4.5623 -2.30896,0 z"
           style="font-style:normal;font-variant:normal;font-weight:bold;font-stretch:normal;font-size:16.25px;font-family:'Swis721 BT';-inkscape-font-specification:'Swis721 BT Bold';letter-spacing:-0.99999988px;fill:#1b2d38;fill-opacity:1"
           id="path4171" />
        <path
           d="m 72.894653,1005.5767 2.301026,0 q -0.349121,1.3648 -1.412354,2.1424 -1.055298,0.7696 -2.578735,0.7696 -1.872559,0 -2.967529,-1.2537 -1.094971,-1.2616 -1.094971,-3.4118 0,-2.1185 1.079101,-3.3405 1.079102,-1.2219 2.951661,-1.2219 1.983642,0 3.062744,1.2061 1.079101,1.1981 1.079101,3.4198 0,0.2459 -0.0079,0.3729 0,0.119 -0.01587,0.2301 l -5.760498,0 q 0.04761,1.0156 0.491943,1.5314 0.45227,0.5157 1.293335,0.5157 0.595093,0 0.975952,-0.2301 0.380859,-0.238 0.603027,-0.73 z m -3.364257,-2.6025 3.395996,0 q -0.03174,-0.8728 -0.46814,-1.3251 -0.428467,-0.4602 -1.237793,-0.4602 -0.753784,0 -1.190186,0.4602 -0.428466,0.4602 -0.499877,1.3251 z"
           style="font-style:normal;font-variant:normal;font-weight:bold;font-stretch:normal;font-size:16.25px;font-family:'Swis721 BT';-inkscape-font-specification:'Swis721 BT Bold';letter-spacing:-0.99999988px;fill:#1b2d38;fill-opacity:1"
           id="path4173" />
        <path
           d="m 84.423096,1007.124 q -0.436402,0.6744 -1.142578,1.0315 -0.706177,0.3491 -1.642456,0.3491 -1.253663,0 -1.936036,-0.7141 -0.674438,-0.7141 -0.674438,-2.0313 0,-1.2219 0.674438,-1.8646 0.682373,-0.6427 2.245484,-0.8807 0.357055,-0.056 0.936279,-0.127 1.467896,-0.1904 1.467896,-0.849 0,-0.5237 -0.325318,-0.7458 -0.325317,-0.2301 -1.087036,-0.2301 -0.698242,0 -1.071167,0.2777 -0.372925,0.2777 -0.372925,0.7934 l 0,0.127 -2.158203,0 0,-0.1587 q 0,-1.3251 0.936279,-2.0789 0.93628,-0.7617 2.58667,-0.7617 1.809082,0 2.769165,0.62683 0.968018,0.62687 0.968018,1.80907 l 0,4.9036 q 0,0.5395 0.111084,0.8093 0.111084,0.2618 0.372925,0.3967 l 0,0.3888 -2.404175,0 q -0.119019,-0.2221 -0.182495,-0.4919 -0.06348,-0.2698 -0.07141,-0.5792 z m -0.03967,-3.1739 q -0.563355,0.2619 -1.30127,0.4206 -0.72998,0.1587 -0.753784,0.1666 -0.610962,0.1746 -0.856933,0.4364 -0.238038,0.2618 -0.238038,0.722 0,0.4761 0.309449,0.7618 0.309448,0.2777 0.83313,0.2777 0.936279,0 1.467895,-0.5237 0.539551,-0.5316 0.539551,-1.4441 l 0,-0.8173 z"
           style="font-style:normal;font-variant:normal;font-weight:bold;font-stretch:normal;font-size:16.25px;font-family:'Swis721 BT';-inkscape-font-specification:'Swis721 BT Bold';letter-spacing:-0.99999988px;fill:#1b2d38;fill-opacity:1"
           id="path4175" />
        <path
           d="m 87.620483,1008.1951 0,-8.62485 2.261353,0 0,1.02355 q 0.484009,-0.62682 1.142578,-0.93627 0.658569,-0.31738 1.467896,-0.31738 1.428222,0 2.134399,0.74585 0.714111,0.7379 0.714111,2.2296 l 0,5.8795 -2.30896,0 0,-5.213 q 0,-0.9283 -0.317382,-1.3251 -0.309449,-0.3967 -1.015625,-0.3967 -0.817261,0 -1.293335,0.492 -0.476075,0.484 -0.476075,1.325 l 0,5.1178 -2.30896,0 z"
           style="font-style:normal;font-variant:normal;font-weight:bold;font-stretch:normal;font-size:16.25px;font-family:'Swis721 BT';-inkscape-font-specification:'Swis721 BT Bold';letter-spacing:-0.99999988px;fill:#1b2d38;fill-opacity:1"
           id="path4177" />
        <path
           d="m 104.25903,996.50751 0,11.68759 -2.18994,0 0,-1.1664 q -0.49988,0.7538 -1.12671,1.1109 -0.61889,0.3491 -1.459958,0.3491 -1.594849,0 -2.58667,-1.2616 -0.983887,-1.2616 -0.983887,-3.3087 0,-2.063 0.983887,-3.3484 0.991821,-1.29333 2.554932,-1.29333 0.833126,0 1.483766,0.34912 0.65857,0.34912 1.08703,1.01561 l 0,-4.13389 2.23755,0 z m -6.038205,7.31569 q 0,1.3092 0.491944,1.9995 0.491943,0.6824 1.420291,0.6824 0.92041,0 1.40442,-0.6824 0.484,-0.6824 0.484,-1.9995 0,-1.2219 -0.50781,-1.8805 -0.50781,-0.6665 -1.42822,-0.6665 -0.864869,0 -1.364747,0.6824 -0.499878,0.6744 -0.499878,1.8646 z"
           style="font-style:normal;font-variant:normal;font-weight:bold;font-stretch:normal;font-size:16.25px;font-family:'Swis721 BT';-inkscape-font-specification:'Swis721 BT Bold';letter-spacing:-0.99999988px;fill:#1b2d38;fill-opacity:1"
           id="path4179" />
      </g>
    </g>
  </g>
</svg>
