<svg
   xmlns:dc="http://purl.org/dc/elements/1.1/"
   xmlns:cc="http://creativecommons.org/ns#"
   xmlns:rdf="http://www.w3.org/1999/02/22-rdf-syntax-ns#"
   xmlns:svg="http://www.w3.org/2000/svg"
   xmlns="http://www.w3.org/2000/svg"
   xmlns:sodipodi="http://sodipodi.sourceforge.net/DTD/sodipodi-0.dtd"
   xmlns:inkscape="http://www.inkscape.org/namespaces/inkscape"
   width="120"
   height="80"
   viewBox="0 0 120 80"
   id="svg2"
   version="1.1"
   inkscape:version="0.91 r13725"
   sodipodi:docname="Icon_AGOL_theCityofSydney_120x80px.svg">
  <defs
     id="defs4" />
  <sodipodi:namedview
     id="base"
     pagecolor="#ffffff"
     bordercolor="#666666"
     borderopacity="1.0"
     inkscape:pageopacity="0.0"
     inkscape:pageshadow="2"
     inkscape:zoom="1.979899"
     inkscape:cx="-105.49946"
     inkscape:cy="35.930091"
     inkscape:document-units="px"
     inkscape:current-layer="layer1"
     showgrid="false"
     units="px"
     inkscape:window-width="1806"
     inkscape:window-height="1057"
     inkscape:window-x="106"
     inkscape:window-y="-8"
     inkscape:window-maximized="1" />
  <metadata
     id="metadata7">
    <rdf:RDF>
      <cc:Work
         rdf:about="">
        <dc:format>image/svg+xml</dc:format>
        <dc:type
           rdf:resource="http://purl.org/dc/dcmitype/StillImage" />
        <dc:title />
      </cc:Work>
    </rdf:RDF>
  </metadata>
  <g
     inkscape:label="Layer 1"
     inkscape:groupmode="layer"
     id="layer1"
     transform="translate(0,-972.36216)">
    <rect
       style="opacity:1;fill:#152128;fill-opacity:1"
       id="rect4136-4-5-6-2-0-6-4"
       width="120"
       height="80"
       x="0"
       y="972.36218" />
    <g
       id="g4193"
       transform="translate(-6.0516319,-0.01976749)">
      <g
         style="font-style:normal;font-weight:normal;font-size:20px;line-height:125%;font-family:sans-serif;letter-spacing:0px;word-spacing:0px;fill:#ffffff;fill-opacity:1;stroke:none;stroke-width:1px;stroke-linecap:butt;stroke-linejoin:miter;stroke-opacity:1"
         id="text4873-0-59-0-00-3-4-12-2-4">
        <path
           d="m 34.187374,1021.6616 q 0,1.2854 0.523682,1.9837 0.531616,0.6982 1.507568,0.6982 0.960083,0 1.483765,-0.6982 0.531616,-0.6983 0.531616,-1.9837 0,-1.2774 -0.523682,-1.9678 -0.523681,-0.6982 -1.491699,-0.6982 -0.975952,0 -1.507568,0.6982 -0.523682,0.6904 -0.523682,1.9678 z m -2.340698,0 q 0,-2.1502 1.166382,-3.3801 1.166382,-1.2299 3.205566,-1.2299 2.03125,0 3.197632,1.2299 1.174316,1.2299 1.174316,3.3801 0,2.1582 -1.174316,3.3881 -1.166382,1.2298 -3.197632,1.2298 -2.039184,0 -3.205566,-1.2298 -1.166382,-1.2299 -1.166382,-3.3881 z"
           style="font-style:normal;font-variant:normal;font-weight:bold;font-stretch:normal;font-size:16.25px;font-family:'Swis721 BT';-inkscape-font-specification:'Swis721 BT Bold';letter-spacing:-0.99999988px;fill:#ffffff;fill-opacity:1"
           id="path4140" />
        <path
           d="m 41.558346,1025.986 0,-7.0063 -1.229859,0 0,-1.6186 1.229859,0 0,-0.8014 q 0,-1.2061 0.618896,-1.7694 0.626831,-0.5713 1.967774,-0.5713 0.245971,0 0.515747,0.016 0.27771,0.01 0.587158,0.04 l 0,1.8329 -0.603027,0 q -0.515747,0 -0.682373,0.1349 -0.158692,0.1349 -0.158692,0.5158 l 0,0.603 1.444092,0 0,1.6186 -1.428223,0 0,7.0063 -2.261352,0 z"
           style="font-style:normal;font-variant:normal;font-weight:bold;font-stretch:normal;font-size:16.25px;font-family:'Swis721 BT';-inkscape-font-specification:'Swis721 BT Bold';letter-spacing:-0.99999988px;fill:#ffffff;fill-opacity:1"
           id="path4142" />
        <path
           d="m 48.71484,1022.3757 2.372436,0 q 0.134888,0.9601 0.785523,1.4283 0.650635,0.4602 1.880493,0.4602 1.047363,0 1.57898,-0.373 0.531616,-0.3729 0.531616,-1.1029 0,-1.0632 -3.05481,-1.7614 -0.03967,-0.01 -0.07141,-0.016 -0.07935,-0.016 -0.245972,-0.056 -1.634521,-0.357 -2.332763,-0.8013 -0.618897,-0.3968 -0.944214,-1.0633 -0.325318,-0.6744 -0.325318,-1.5869 0,-1.7059 1.158448,-2.6105 1.158447,-0.9124 3.348388,-0.9124 2.04712,0 3.197632,0.968 1.158448,0.968 1.221924,2.7295 l -2.30896,0 q -0.06348,-0.849 -0.650635,-1.2934 -0.587158,-0.4443 -1.674194,-0.4443 -0.944214,0 -1.459961,0.3729 -0.507812,0.365 -0.507812,1.0474 0,0.9283 1.991577,1.3885 0.539551,0.127 0.841064,0.1984 1.277466,0.3253 1.809082,0.5078 0.539551,0.1825 0.93628,0.4047 0.714111,0.3967 1.071167,1.0553 0.357055,0.6506 0.357055,1.5631 0,1.8249 -1.229858,2.8326 -1.229859,0.9998 -3.467407,0.9998 -2.205811,0 -3.459473,-1.0236 -1.253662,-1.0235 -1.348877,-2.912 z"
           style="font-style:normal;font-variant:normal;font-weight:bold;font-stretch:normal;font-size:16.25px;font-family:'Swis721 BT';-inkscape-font-specification:'Swis721 BT Bold';letter-spacing:-0.99999988px;fill:#ffffff;fill-opacity:1"
           id="path4144" />
        <path
           d="m 59.251705,1029.4454 0,-1.8646 q 0.111084,0.016 0.230103,0.024 0.119018,0.01 0.309448,0.01 0.682373,0 1.02356,-0.3253 0.341186,-0.3174 0.341186,-0.9601 0,-0.048 -0.01587,-0.119 -0.01587,-0.071 -0.03174,-0.119 l -3.110352,-8.728 2.539063,0 1.817016,6.2207 1.769409,-6.2207 2.427979,0 -3.546753,10.1721 q -0.396729,1.1426 -0.991821,1.5552 -0.595093,0.4205 -1.785279,0.4205 -0.214233,0 -0.460205,-0.016 -0.245971,-0.016 -0.515747,-0.048 z"
           style="font-style:normal;font-variant:normal;font-weight:bold;font-stretch:normal;font-size:16.25px;font-family:'Swis721 BT';-inkscape-font-specification:'Swis721 BT Bold';letter-spacing:-0.99999988px;fill:#ffffff;fill-opacity:1"
           id="path4146" />
        <path
           d="m 74.565182,1014.2983 0,11.6877 -2.189942,0 0,-1.1664 q -0.499878,0.7538 -1.126709,1.1108 -0.618896,0.3491 -1.459961,0.3491 -1.594848,0 -2.58667,-1.2616 -0.983886,-1.2616 -0.983886,-3.3087 0,-2.063 0.983886,-3.3484 0.991822,-1.2933 2.554932,-1.2933 0.83313,0 1.483765,0.3491 0.658569,0.3491 1.087036,1.0157 l 0,-4.134 2.237549,0 z m -6.038208,7.3157 q 0,1.3092 0.491943,1.9995 0.491943,0.6824 1.420288,0.6824 0.92041,0 1.404419,-0.6824 0.484009,-0.6823 0.484009,-1.9995 0,-1.2219 -0.507813,-1.8805 -0.507812,-0.6665 -1.428222,-0.6665 -0.864868,0 -1.364746,0.6824 -0.499878,0.6744 -0.499878,1.8646 z"
           style="font-style:normal;font-variant:normal;font-weight:bold;font-stretch:normal;font-size:16.25px;font-family:'Swis721 BT';-inkscape-font-specification:'Swis721 BT Bold';letter-spacing:-0.99999988px;fill:#ffffff;fill-opacity:1"
           id="path4148" />
        <path
           d="m 75.636105,1025.986 0,-8.6249 2.261352,0 0,1.0235 q 0.484009,-0.6268 1.142578,-0.9362 0.65857,-0.3174 1.467896,-0.3174 1.428222,0 2.134399,0.7458 0.714111,0.7379 0.714111,2.2296 l 0,5.8796 -2.308959,0 0,-5.2131 q 0,-0.9283 -0.317383,-1.325 -0.309449,-0.3968 -1.015625,-0.3968 -0.817261,0 -1.293335,0.492 -0.476074,0.484 -0.476074,1.3251 l 0,5.1178 -2.30896,0 z"
           style="font-style:normal;font-variant:normal;font-weight:bold;font-stretch:normal;font-size:16.25px;font-family:'Swis721 BT';-inkscape-font-specification:'Swis721 BT Bold';letter-spacing:-0.99999988px;fill:#ffffff;fill-opacity:1"
           id="path4150" />
        <path
           d="m 89.664181,1023.3676 2.301025,0 q -0.349121,1.3647 -1.412353,2.1423 -1.055298,0.7696 -2.578736,0.7696 -1.872558,0 -2.967529,-1.2536 -1.094971,-1.2616 -1.094971,-3.4119 0,-2.1185 1.079102,-3.3404 1.079101,-1.222 2.95166,-1.222 1.983643,0 3.062744,1.2061 1.079102,1.1981 1.079102,3.4198 0,0.246 -0.0079,0.3729 0,0.119 -0.01587,0.2301 l -5.760498,0 q 0.04761,1.0156 0.491943,1.5314 0.452271,0.5157 1.293335,0.5157 0.595093,0 0.975952,-0.2301 0.38086,-0.238 0.603028,-0.7299 z m -3.364258,-2.6026 3.395996,0 q -0.03174,-0.8728 -0.46814,-1.3251 -0.428466,-0.4602 -1.237793,-0.4602 -0.753784,0 -1.190185,0.4602 -0.428467,0.4602 -0.499878,1.3251 z"
           style="font-style:normal;font-variant:normal;font-weight:bold;font-stretch:normal;font-size:16.25px;font-family:'Swis721 BT';-inkscape-font-specification:'Swis721 BT Bold';letter-spacing:-0.99999988px;fill:#ffffff;fill-opacity:1"
           id="path4152" />
        <path
           d="m 92.956783,1029.4454 0,-1.8646 q 0.111084,0.016 0.230103,0.024 0.119018,0.01 0.309448,0.01 0.682373,0 1.02356,-0.3253 0.341186,-0.3174 0.341186,-0.9601 0,-0.048 -0.01587,-0.119 -0.01587,-0.071 -0.03174,-0.119 l -3.110352,-8.728 2.539063,0 1.817016,6.2207 1.769409,-6.2207 2.427981,0 -3.546755,10.1721 q -0.396728,1.1426 -0.991821,1.5552 -0.595093,0.4205 -1.785279,0.4205 -0.214233,0 -0.460205,-0.016 -0.245971,-0.016 -0.515747,-0.048 z"
           style="font-style:normal;font-variant:normal;font-weight:bold;font-stretch:normal;font-size:16.25px;font-family:'Swis721 BT';-inkscape-font-specification:'Swis721 BT Bold';letter-spacing:-0.99999988px;fill:#ffffff;fill-opacity:1"
           id="path4154" />
      </g>
      <g
         style="font-style:normal;font-weight:normal;font-size:20px;line-height:125%;font-family:sans-serif;letter-spacing:0px;word-spacing:0px;fill:#ffffff;fill-opacity:1;stroke:none;stroke-width:1px;stroke-linecap:butt;stroke-linejoin:miter;stroke-opacity:1"
         id="text4873-0-59-0-00-5-5-8-2-9-5">
        <path
           d="m 36.607418,1007.3076 q -0.317383,0.01 -0.761719,0.024 -0.436401,0.024 -0.55542,0.024 -1.325073,0 -1.817016,-0.492 -0.484009,-0.4999 -0.484009,-1.9598 l 0,-4.6655 -1.142578,0 0,-1.6187 1.142578,0 0,-2.35657 2.285156,0 0,2.35657 1.333008,0 0,1.6187 -1.333008,0 0,4.7766 q 0,0.3412 0.150757,0.4522 0.150757,0.1032 0.618897,0.1032 l 0.563354,0 0,1.7377 z"
           style="font-style:normal;font-variant:normal;font-weight:bold;font-stretch:normal;font-size:16.25px;font-family:'Swis721 BT';-inkscape-font-specification:'Swis721 BT Bold';letter-spacing:-0.99999988px;fill:#ffffff;fill-opacity:1"
           id="path4157" />
        <path
           d="m 36.995968,1007.2441 0,-11.68764 2.293091,0 0,4.01489 q 0.468139,-0.58716 1.11084,-0.88074 0.650634,-0.30151 1.452026,-0.30151 0.761719,0 1.372681,0.26184 0.618896,0.26184 0.999755,0.74585 0.261841,0.32532 0.364991,0.74581 0.111084,0.4206 0.111084,1.3489 l 0,0.1587 0,5.5939 -2.293091,0 0,-4.5148 q 0,-1.6028 -0.293579,-2.0074 -0.293579,-0.4126 -1.055298,-0.4126 -0.817261,0 -1.293335,0.4919 -0.476074,0.484 -0.476074,1.3251 l 0,5.1178 -2.293091,0 z"
           style="font-style:normal;font-variant:normal;font-weight:bold;font-stretch:normal;font-size:16.25px;font-family:'Swis721 BT';-inkscape-font-specification:'Swis721 BT Bold';letter-spacing:-0.99999988px;fill:#ffffff;fill-opacity:1"
           id="path4159" />
        <path
           d="m 51.039913,1004.6257 2.301026,0 q -0.349122,1.3647 -1.412354,2.1423 -1.055298,0.7697 -2.578735,0.7697 -1.872559,0 -2.96753,-1.2537 -1.09497,-1.2616 -1.09497,-3.4119 0,-2.1185 1.079101,-3.34042 1.079102,-1.22193 2.95166,-1.22193 1.983643,0 3.062745,1.20606 1.079101,1.19809 1.079101,3.41979 0,0.246 -0.0079,0.3729 0,0.1191 -0.01587,0.2301 l -5.760498,0 q 0.04761,1.0157 0.491944,1.5314 0.45227,0.5158 1.293335,0.5158 0.595092,0 0.975952,-0.2301 0.380859,-0.2381 0.603027,-0.73 z m -3.364258,-2.6026 3.395996,0 q -0.03174,-0.8728 -0.468139,-1.325 -0.428467,-0.4602 -1.237793,-0.4602 -0.753784,0 -1.190186,0.4602 -0.428467,0.4602 -0.499878,1.325 z"
           style="font-style:normal;font-variant:normal;font-weight:bold;font-stretch:normal;font-size:16.25px;font-family:'Swis721 BT';-inkscape-font-specification:'Swis721 BT Bold';letter-spacing:-0.99999988px;fill:#ffffff;fill-opacity:1"
           id="path4161" />
        <path
           d="m 67.995602,1003.2292 q -0.134888,1.9916 -1.539307,3.1659 -1.396484,1.1743 -3.649902,1.1743 -2.594605,0 -4.038697,-1.6187 -1.436157,-1.6186 -1.436157,-4.5385 0,-2.98343 1.467896,-4.57034 1.467895,-1.58692 4.221191,-1.58692 2.237549,0 3.530884,1.09497 1.301269,1.08704 1.428223,3.07862 l -2.372437,0 q -0.150757,-0.99182 -0.809326,-1.50757 -0.65857,-0.52368 -1.777344,-0.52368 -1.586914,0 -2.412109,1.02356 -0.825196,1.02356 -0.825196,2.99136 0,1.9043 0.817261,2.9437 0.825195,1.0394 2.340698,1.0394 1.094971,0 1.793213,-0.5554 0.698242,-0.5633 0.904541,-1.6107 l 2.356568,0 z"
           style="font-style:normal;font-variant:normal;font-weight:bold;font-stretch:normal;font-size:16.25px;font-family:'Swis721 BT';-inkscape-font-specification:'Swis721 BT Bold';letter-spacing:-0.99999988px;fill:#ffffff;fill-opacity:1"
           id="path4163" />
        <path
           d="m 68.765011,997.65912 0,-2.10266 2.30896,0 0,2.10266 -2.30896,0 z m 0,9.58498 0,-8.6249 2.30896,0 0,8.6249 -2.30896,0 z"
           style="font-style:normal;font-variant:normal;font-weight:bold;font-stretch:normal;font-size:16.25px;font-family:'Swis721 BT';-inkscape-font-specification:'Swis721 BT Bold';letter-spacing:-0.99999988px;fill:#ffffff;fill-opacity:1"
           id="path4165" />
        <path
           d="m 75.961422,1007.3076 q -0.317383,0.01 -0.761719,0.024 -0.436401,0.024 -0.55542,0.024 -1.325073,0 -1.817016,-0.492 -0.484009,-0.4999 -0.484009,-1.9598 l 0,-4.6655 -1.142578,0 0,-1.6187 1.142578,0 0,-2.35657 2.285156,0 0,2.35657 1.333008,0 0,1.6187 -1.333008,0 0,4.7766 q 0,0.3412 0.150757,0.4522 0.150757,0.1032 0.618896,0.1032 l 0.563355,0 0,1.7377 z"
           style="font-style:normal;font-variant:normal;font-weight:bold;font-stretch:normal;font-size:16.25px;font-family:'Swis721 BT';-inkscape-font-specification:'Swis721 BT Bold';letter-spacing:-0.99999988px;fill:#ffffff;fill-opacity:1"
           id="path4167" />
        <path
           d="m 76.643551,1010.7036 0,-1.8647 q 0.111084,0.016 0.230102,0.024 0.119019,0.01 0.309449,0.01 0.682373,0 1.023559,-0.3254 0.341187,-0.3173 0.341187,-0.96 0,-0.048 -0.01587,-0.1191 -0.01587,-0.071 -0.03174,-0.119 l -3.110351,-8.728 2.539062,0 1.817017,6.2207 1.769409,-6.2207 2.427979,0 -3.546753,10.1721 q -0.396729,1.1426 -0.991822,1.5552 -0.595092,0.4205 -1.785278,0.4205 -0.214233,0 -0.460205,-0.016 -0.245972,-0.016 -0.515747,-0.048 z"
           style="font-style:normal;font-variant:normal;font-weight:bold;font-stretch:normal;font-size:16.25px;font-family:'Swis721 BT';-inkscape-font-specification:'Swis721 BT Bold';letter-spacing:-0.99999988px;fill:#ffffff;fill-opacity:1"
           id="path4169" />
      </g>
    </g>
  </g>
</svg>
