<svg
   xmlns:dc="http://purl.org/dc/elements/1.1/"
   xmlns:cc="http://creativecommons.org/ns#"
   xmlns:rdf="http://www.w3.org/1999/02/22-rdf-syntax-ns#"
   xmlns:svg="http://www.w3.org/2000/svg"
   xmlns="http://www.w3.org/2000/svg"
   xmlns:sodipodi="http://sodipodi.sourceforge.net/DTD/sodipodi-0.dtd"
   xmlns:inkscape="http://www.inkscape.org/namespaces/inkscape"
   width="120"
   height="80"
   viewBox="0 0 120 80"
   id="svg2"
   version="1.1"
   inkscape:version="0.91 r13725"
   sodipodi:docname="Icon_AGOL_VenuesEvents_120x80px.svg">
  <defs
     id="defs4" />
  <sodipodi:namedview
     id="base"
     pagecolor="#ffffff"
     bordercolor="#666666"
     borderopacity="1.0"
     inkscape:pageopacity="0.0"
     inkscape:pageshadow="2"
     inkscape:zoom="2.8"
     inkscape:cx="-18.012832"
     inkscape:cy="51.182501"
     inkscape:document-units="px"
     inkscape:current-layer="layer1"
     showgrid="false"
     units="px"
     inkscape:window-width="1806"
     inkscape:window-height="1057"
     inkscape:window-x="106"
     inkscape:window-y="-8"
     inkscape:window-maximized="1" />
  <metadata
     id="metadata7">
    <rdf:RDF>
      <cc:Work
         rdf:about="">
        <dc:format>image/svg+xml</dc:format>
        <dc:type
           rdf:resource="http://purl.org/dc/dcmitype/StillImage" />
        <dc:title></dc:title>
      </cc:Work>
    </rdf:RDF>
  </metadata>
  <g
     inkscape:label="Layer 1"
     inkscape:groupmode="layer"
     id="layer1"
     transform="translate(0,-972.36216)">
    <rect
       style="opacity:1;fill:#005a84;fill-opacity:1"
       id="rect4136-4-5-6-2-0-6-4-6-2"
       width="120"
       height="80"
       x="0"
       y="972.36212" />
    <g
       id="g4171"
       transform="translate(-4.621582,0.16471127)">
      <g
         style="font-style:normal;font-weight:normal;font-size:20px;line-height:125%;font-family:sans-serif;letter-spacing:0px;word-spacing:0px;fill:#ffffff;fill-opacity:1;stroke:none;stroke-width:1px;stroke-linecap:butt;stroke-linejoin:miter;stroke-opacity:1"
         id="text4873-0-59-0-00-3-4">
        <path
           d="m 30.47229,1024.4705 2.301025,0 q -0.349121,1.3647 -1.412353,2.1423 -1.055298,0.7696 -2.578735,0.7696 -1.872559,0 -2.96753,-1.2536 -1.09497,-1.2616 -1.09497,-3.4119 0,-2.1185 1.079101,-3.3404 1.079102,-1.222 2.95166,-1.222 1.983643,0 3.062744,1.2061 1.079102,1.1981 1.079102,3.4198 0,0.246 -0.0079,0.3729 0,0.119 -0.01587,0.2301 l -5.760498,0 q 0.04761,1.0156 0.491944,1.5314 0.45227,0.5157 1.293335,0.5157 0.595092,0 0.975952,-0.2301 0.380859,-0.238 0.603027,-0.7299 z m -3.364258,-2.6026 3.395996,0 q -0.03174,-0.8728 -0.468139,-1.3251 -0.428467,-0.4602 -1.237793,-0.4602 -0.753784,0 -1.190186,0.4602 -0.428467,0.4603 -0.499878,1.3251 z"
           style="font-style:normal;font-variant:normal;font-weight:bold;font-stretch:normal;font-size:16.25px;font-family:'Swis721 BT';-inkscape-font-specification:'Swis721 BT Bold';letter-spacing:-0.99999988px;fill:#ffffff"
           id="path4140" />
        <path
           d="m 35.550171,1027.0889 -3.102417,-8.6249 2.554932,0 1.769409,6.189 1.785278,-6.189 2.435913,0 -3.086548,8.6249 -2.356567,0 z"
           style="font-style:normal;font-variant:normal;font-weight:bold;font-stretch:normal;font-size:16.25px;font-family:'Swis721 BT';-inkscape-font-specification:'Swis721 BT Bold';letter-spacing:-0.99999988px;fill:#ffffff"
           id="path4142" />
        <path
           d="m 46.340942,1024.4705 2.301026,0 q -0.349121,1.3647 -1.412354,2.1423 -1.055298,0.7696 -2.578735,0.7696 -1.872559,0 -2.967529,-1.2536 -1.094971,-1.2616 -1.094971,-3.4119 0,-2.1185 1.079101,-3.3404 1.079102,-1.222 2.951661,-1.222 1.983642,0 3.062744,1.2061 1.079101,1.1981 1.079101,3.4198 0,0.246 -0.0079,0.3729 0,0.119 -0.01587,0.2301 l -5.760498,0 q 0.04761,1.0156 0.491943,1.5314 0.45227,0.5157 1.293335,0.5157 0.595093,0 0.975952,-0.2301 0.380859,-0.238 0.603027,-0.7299 z m -3.364257,-2.6026 3.395996,0 q -0.03174,-0.8728 -0.46814,-1.3251 -0.428467,-0.4602 -1.237793,-0.4602 -0.753784,0 -1.190186,0.4602 -0.428466,0.4603 -0.499877,1.3251 z"
           style="font-style:normal;font-variant:normal;font-weight:bold;font-stretch:normal;font-size:16.25px;font-family:'Swis721 BT';-inkscape-font-specification:'Swis721 BT Bold';letter-spacing:-0.99999988px;fill:#ffffff"
           id="path4144" />
        <path
           d="m 49.292358,1027.0889 0,-8.6249 2.261353,0 0,1.0235 q 0.484009,-0.6268 1.142578,-0.9362 0.658569,-0.3174 1.467896,-0.3174 1.428222,0 2.134399,0.7458 0.714111,0.738 0.714111,2.2297 l 0,5.8795 -2.30896,0 0,-5.213 q 0,-0.9284 -0.317382,-1.3251 -0.309449,-0.3967 -1.015625,-0.3967 -0.817261,0 -1.293335,0.4919 -0.476075,0.484 -0.476075,1.3251 l 0,5.1178 -2.30896,0 z"
           style="font-style:normal;font-variant:normal;font-weight:bold;font-stretch:normal;font-size:16.25px;font-family:'Swis721 BT';-inkscape-font-specification:'Swis721 BT Bold';letter-spacing:-0.99999988px;fill:#ffffff"
           id="path4146" />
        <path
           d="m 61.83667,1027.1523 q -0.317383,0.01 -0.761719,0.024 -0.436401,0.024 -0.55542,0.024 -1.325073,0 -1.817016,-0.492 -0.484009,-0.4999 -0.484009,-1.9598 l 0,-4.6656 -1.142578,0 0,-1.6186 1.142578,0 0,-2.3566 2.285156,0 0,2.3566 1.333008,0 0,1.6186 -1.333008,0 0,4.7767 q 0,0.3411 0.150757,0.4522 0.150757,0.1032 0.618896,0.1032 l 0.563355,0 0,1.7376 z"
           style="font-style:normal;font-variant:normal;font-weight:bold;font-stretch:normal;font-size:16.25px;font-family:'Swis721 BT';-inkscape-font-specification:'Swis721 BT Bold';letter-spacing:-0.99999988px;fill:#ffffff"
           id="path4148" />
        <path
           d="m 61.693604,1024.28 2.301025,0 q 0.03174,0.6586 0.476074,0.9839 0.444336,0.3174 1.333008,0.3174 0.674438,0 1.039429,-0.2222 0.372924,-0.2301 0.372924,-0.6427 0,-0.5871 -1.380615,-0.8807 -0.563354,-0.119 -0.896606,-0.2063 -1.682129,-0.4285 -2.340698,-1.0156 -0.650635,-0.5872 -0.650635,-1.5869 0,-1.3251 0.952148,-2.0948 0.960083,-0.7776 2.594605,-0.7776 1.729736,0 2.713623,0.7697 0.991821,0.7696 1.055298,2.1661 l -2.245484,0 q -0.0238,-0.5475 -0.420532,-0.849 -0.388794,-0.3015 -1.087036,-0.3015 -0.65857,0 -0.983887,0.1984 -0.317383,0.1983 -0.317383,0.5951 0,0.5157 1.721802,0.9125 0.396729,0.087 0.626831,0.1428 1.721802,0.4046 2.348633,0.9759 0.634766,0.5713 0.634766,1.6107 0,1.4679 -1.039429,2.2376 -1.031494,0.7696 -3.007202,0.7696 -1.785279,0 -2.792969,-0.8013 -1.00769,-0.8014 -1.00769,-2.2059 l 0,-0.095 z"
           style="font-style:normal;font-variant:normal;font-weight:bold;font-stretch:normal;font-size:16.25px;font-family:'Swis721 BT';-inkscape-font-specification:'Swis721 BT Bold';letter-spacing:-0.99999988px;fill:#ffffff"
           id="path4150" />
      </g>
      <g
         style="font-style:normal;font-weight:normal;font-size:20px;line-height:125%;font-family:sans-serif;letter-spacing:0px;word-spacing:0px;fill:#ffffff;fill-opacity:1;stroke:none;stroke-width:1px;stroke-linecap:butt;stroke-linejoin:miter;stroke-opacity:1"
         id="text4873-0-59-0-00-5-5-8">
        <path
           d="m 28.750488,1008.7001 -4.030761,-11.68765 2.666015,0 2.483521,8.74385 2.531128,-8.74385 2.634277,0 -3.983154,11.68765 -2.301026,0 z"
           style="font-style:normal;font-variant:normal;font-weight:bold;font-stretch:normal;font-size:16.25px;font-family:'Swis721 BT';-inkscape-font-specification:'Swis721 BT Bold';letter-spacing:-0.99999988px;fill:#ffffff"
           id="path4153" />
        <path
           d="m 39.565063,1006.0817 2.301026,0 q -0.349121,1.3647 -1.412354,2.1423 -1.055298,0.7697 -2.578735,0.7697 -1.872559,0 -2.967529,-1.2537 -1.094971,-1.2616 -1.094971,-3.4119 0,-2.1185 1.079102,-3.3404 1.079101,-1.22195 2.95166,-1.22195 1.983642,0 3.062744,1.20605 1.079101,1.1981 1.079101,3.4198 0,0.246 -0.0079,0.3729 0,0.119 -0.01587,0.2301 l -5.760498,0 q 0.04761,1.0157 0.491943,1.5314 0.452271,0.5157 1.293335,0.5157 0.595093,0 0.975952,-0.2301 0.38086,-0.238 0.603027,-0.7299 z m -3.364257,-2.6026 3.395996,0 q -0.03174,-0.8728 -0.46814,-1.325 -0.428467,-0.4603 -1.237793,-0.4603 -0.753784,0 -1.190185,0.4603 -0.428467,0.4602 -0.499878,1.325 z"
           style="font-style:normal;font-variant:normal;font-weight:bold;font-stretch:normal;font-size:16.25px;font-family:'Swis721 BT';-inkscape-font-specification:'Swis721 BT Bold';letter-spacing:-0.99999988px;fill:#ffffff"
           id="path4155" />
        <path
           d="m 42.532349,1008.7001 0,-8.6249 2.261352,0 0,1.0236 q 0.484009,-0.6269 1.142578,-0.9363 0.65857,-0.31741 1.467896,-0.31741 1.428222,0 2.134399,0.74581 0.714112,0.738 0.714112,2.2297 l 0,5.8795 -2.30896,0 0,-5.213 q 0,-0.9284 -0.317383,-1.3251 -0.309448,-0.3967 -1.015625,-0.3967 -0.817261,0 -1.293335,0.4919 -0.476074,0.484 -0.476074,1.3251 l 0,5.1178 -2.30896,0 z"
           style="font-style:normal;font-variant:normal;font-weight:bold;font-stretch:normal;font-size:16.25px;font-family:'Swis721 BT';-inkscape-font-specification:'Swis721 BT Bold';letter-spacing:-0.99999988px;fill:#ffffff"
           id="path4157" />
        <path
           d="m 58.932861,1000.0752 0,8.6249 -2.261352,0 0,-1.0236 q -0.491944,0.6268 -1.150513,0.9442 -0.650635,0.3095 -1.467895,0.3095 -1.420289,0 -2.1344,-0.7459 -0.706177,-0.7458 -0.706177,-2.2296 l 0,-5.8795 2.30896,0 0,5.213 q 0,0.9204 0.309449,1.3171 0.309448,0.3888 1.023559,0.3888 0.809326,0 1.285401,-0.484 0.484008,-0.4919 0.484008,-1.333 l 0,-5.1019 2.30896,0 z"
           style="font-style:normal;font-variant:normal;font-weight:bold;font-stretch:normal;font-size:16.25px;font-family:'Swis721 BT';-inkscape-font-specification:'Swis721 BT Bold';letter-spacing:-0.99999988px;fill:#ffffff"
           id="path4159" />
        <path
           d="m 65.272339,1006.0817 2.301025,0 q -0.349121,1.3647 -1.412353,2.1423 -1.055298,0.7697 -2.578736,0.7697 -1.872558,0 -2.967529,-1.2537 -1.094971,-1.2616 -1.094971,-3.4119 0,-2.1185 1.079102,-3.3404 1.079102,-1.22195 2.95166,-1.22195 1.983643,0 3.062744,1.20605 1.079102,1.1981 1.079102,3.4198 0,0.246 -0.0079,0.3729 0,0.119 -0.01587,0.2301 l -5.760498,0 q 0.04761,1.0157 0.491943,1.5314 0.452271,0.5157 1.293335,0.5157 0.595093,0 0.975953,-0.2301 0.380859,-0.238 0.603027,-0.7299 z m -3.364258,-2.6026 3.395996,0 q -0.03174,-0.8728 -0.46814,-1.325 -0.428466,-0.4603 -1.237792,-0.4603 -0.753785,0 -1.190186,0.4603 -0.428467,0.4602 -0.499878,1.325 z"
           style="font-style:normal;font-variant:normal;font-weight:bold;font-stretch:normal;font-size:16.25px;font-family:'Swis721 BT';-inkscape-font-specification:'Swis721 BT Bold';letter-spacing:-0.99999988px;fill:#ffffff"
           id="path4161" />
        <path
           d="m 67.739746,1005.8912 2.301025,0 q 0.03174,0.6586 0.476075,0.9839 0.444336,0.3174 1.333008,0.3174 0.674438,0 1.039428,-0.2222 0.372925,-0.2301 0.372925,-0.6427 0,-0.5871 -1.380615,-0.8807 -0.563355,-0.119 -0.896607,-0.2063 -1.682129,-0.4285 -2.340698,-1.0156 -0.650635,-0.5872 -0.650635,-1.5869 0,-1.3251 0.952149,-2.0948 0.960083,-0.77755 2.594604,-0.77755 1.729737,0 2.713623,0.76965 0.991822,0.7697 1.055298,2.1661 l -2.245483,0 q -0.0238,-0.5474 -0.420532,-0.849 -0.388794,-0.3015 -1.087037,-0.3015 -0.658569,0 -0.983886,0.1984 -0.317383,0.1984 -0.317383,0.5951 0,0.5157 1.721802,0.9125 0.396728,0.087 0.626831,0.1428 1.721801,0.4046 2.348633,0.9759 0.634765,0.5713 0.634765,1.6108 0,1.4678 -1.039429,2.2375 -1.031494,0.7697 -3.007202,0.7697 -1.785278,0 -2.792968,-0.8014 -1.007691,-0.8014 -1.007691,-2.2058 l 0,-0.095 z"
           style="font-style:normal;font-variant:normal;font-weight:bold;font-stretch:normal;font-size:16.25px;font-family:'Swis721 BT';-inkscape-font-specification:'Swis721 BT Bold';letter-spacing:-0.99999988px;fill:#ffffff"
           id="path4163" />
        <path
           d="m 84.6875,1007.6289 q -0.436401,0.6744 -1.142578,1.0315 -0.706177,0.3491 -1.642456,0.3491 -1.253662,0 -1.936035,-0.7141 -0.674439,-0.7141 -0.674439,-2.0312 0,-1.222 0.674439,-1.8647 0.682373,-0.6427 2.245483,-0.8807 0.357056,-0.056 0.936279,-0.127 1.467896,-0.1904 1.467896,-0.849 0,-0.5236 -0.325318,-0.7458 -0.325317,-0.2301 -1.087036,-0.2301 -0.698242,0 -1.071167,0.2777 -0.372924,0.2777 -0.372924,0.7935 l 0,0.1269 -2.158204,0 0,-0.1587 q 0,-1.3251 0.93628,-2.0788 0.936279,-0.76175 2.58667,-0.76175 1.809082,0 2.769165,0.62685 0.968017,0.6268 0.968017,1.8091 l 0,4.9035 q 0,0.5396 0.111084,0.8094 0.111084,0.2618 0.372925,0.3967 l 0,0.3888 -2.404175,0 q -0.119018,-0.2222 -0.182495,-0.492 -0.06348,-0.2697 -0.07141,-0.5792 z m -0.03967,-3.1738 q -0.563354,0.2618 -1.301269,0.4205 -0.729981,0.1587 -0.753785,0.1666 -0.610961,0.1746 -0.856933,0.4364 -0.238037,0.2619 -0.238037,0.7221 0,0.4761 0.309448,0.7617 0.309448,0.2777 0.83313,0.2777 0.936279,0 1.467895,-0.5237 0.539551,-0.5316 0.539551,-1.4441 l 0,-0.8172 z"
           style="font-style:normal;font-variant:normal;font-weight:bold;font-stretch:normal;font-size:16.25px;font-family:'Swis721 BT';-inkscape-font-specification:'Swis721 BT Bold';letter-spacing:-0.99999988px;fill:#ffffff"
           id="path4165" />
        <path
           d="m 87.884888,1008.7001 0,-8.6249 2.261352,0 0,1.0236 q 0.484009,-0.6269 1.142578,-0.9363 0.65857,-0.31741 1.467896,-0.31741 1.428223,0 2.134399,0.74581 0.714112,0.738 0.714112,2.2297 l 0,5.8795 -2.30896,0 0,-5.213 q 0,-0.9284 -0.317383,-1.3251 -0.309448,-0.3967 -1.015625,-0.3967 -0.817261,0 -1.293335,0.4919 -0.476074,0.484 -0.476074,1.3251 l 0,5.1178 -2.30896,0 z"
           style="font-style:normal;font-variant:normal;font-weight:bold;font-stretch:normal;font-size:16.25px;font-family:'Swis721 BT';-inkscape-font-specification:'Swis721 BT Bold';letter-spacing:-0.99999988px;fill:#ffffff"
           id="path4167" />
        <path
           d="m 104.52344,997.01245 0,11.68765 -2.18994,0 0,-1.1664 q -0.49988,0.7538 -1.12671,1.1108 -0.6189,0.3492 -1.459964,0.3492 -1.594848,0 -2.58667,-1.2616 -0.983886,-1.2616 -0.983886,-3.3088 0,-2.0629 0.983886,-3.3483 0.991822,-1.29338 2.554932,-1.29338 0.833132,0 1.483762,0.34908 0.65857,0.3492 1.08704,1.0157 l 0,-4.13395 2.23755,0 z m -6.038211,7.31565 q 0,1.3092 0.491944,1.9995 0.491943,0.6824 1.420287,0.6824 0.92041,0 1.40442,-0.6824 0.48401,-0.6823 0.48401,-1.9995 0,-1.2219 -0.50781,-1.8805 -0.50782,-0.6665 -1.42823,-0.6665 -0.864865,0 -1.364743,0.6824 -0.499878,0.6744 -0.499878,1.8646 z"
           style="font-style:normal;font-variant:normal;font-weight:bold;font-stretch:normal;font-size:16.25px;font-family:'Swis721 BT';-inkscape-font-specification:'Swis721 BT Bold';letter-spacing:-0.99999988px;fill:#ffffff"
           id="path4169" />
      </g>
    </g>
  </g>
</svg>
