<?xml version="1.0" encoding="UTF-8" standalone="no"?>
<svg
   xmlns:dc="http://purl.org/dc/elements/1.1/"
   xmlns:cc="http://creativecommons.org/ns#"
   xmlns:rdf="http://www.w3.org/1999/02/22-rdf-syntax-ns#"
   xmlns:svg="http://www.w3.org/2000/svg"
   xmlns="http://www.w3.org/2000/svg"
   xmlns:sodipodi="http://sodipodi.sourceforge.net/DTD/sodipodi-0.dtd"
   xmlns:inkscape="http://www.inkscape.org/namespaces/inkscape"
   width="120"
   height="80"
   viewBox="0 0 120 80"
   id="svg2"
   version="1.1"
   inkscape:version="0.91 r13725"
   sodipodi:docname="Icon_AGOL_GettingAround_120x80px.svg">
  <defs
     id="defs4" />
  <sodipodi:namedview
     id="base"
     pagecolor="#ffffff"
     bordercolor="#666666"
     borderopacity="1.0"
     inkscape:pageopacity="0.0"
     inkscape:pageshadow="2"
     inkscape:zoom="3.959798"
     inkscape:cx="14.686968"
     inkscape:cy="37.3423"
     inkscape:document-units="px"
     inkscape:current-layer="layer1"
     showgrid="false"
     units="px"
     inkscape:window-width="1806"
     inkscape:window-height="1057"
     inkscape:window-x="106"
     inkscape:window-y="-8"
     inkscape:window-maximized="1" />
  <metadata
     id="metadata7">
    <rdf:RDF>
      <cc:Work
         rdf:about="">
        <dc:format>image/svg+xml</dc:format>
        <dc:type
           rdf:resource="http://purl.org/dc/dcmitype/StillImage" />
        <dc:title />
      </cc:Work>
    </rdf:RDF>
  </metadata>
  <g
     inkscape:label="Layer 1"
     inkscape:groupmode="layer"
     id="layer1"
     transform="translate(0,-972.36216)">
    <rect
       style="opacity:1;fill:#887e6e;fill-opacity:1"
       id="rect4136-4-5-6-2-0-6-4-6"
       width="120"
       height="80"
       x="0"
       y="972.36212" />
    <text
       xml:space="preserve"
       style="font-style:normal;font-weight:normal;font-size:17.5px;line-height:125%;font-family:sans-serif;letter-spacing:0px;word-spacing:0px;fill:#ffffff;fill-opacity:1;stroke:none;stroke-width:1px;stroke-linecap:butt;stroke-linejoin:miter;stroke-opacity:1"
       x="134.29143"
       y="1025.859"
       id="text4873-0-59-0-00-3-4-1"
       sodipodi:linespacing="125%"><tspan
         sodipodi:role="line"
         id="tspan4875-4-45-5-9-6-7-8"
         x="134.29143"
         y="1025.859"
         style="font-style:normal;font-variant:normal;font-weight:bold;font-stretch:normal;font-size:16.25px;font-family:'Swis721 BT';-inkscape-font-specification:'Swis721 BT Bold';letter-spacing:-0.99999988px;fill:#ffffff">development</tspan></text>
    <text
       xml:space="preserve"
       style="font-style:normal;font-weight:normal;font-size:17.5px;line-height:125%;font-family:sans-serif;letter-spacing:0px;word-spacing:0px;fill:#ffffff;fill-opacity:1;stroke:none;stroke-width:1px;stroke-linecap:butt;stroke-linejoin:miter;stroke-opacity:1"
       x="133.67253"
       y="1007.0934"
       id="text4873-0-59-0-00-5-5-8-5"
       sodipodi:linespacing="125%"><tspan
         sodipodi:role="line"
         id="tspan4875-4-45-5-9-9-3-4-4"
         x="133.67253"
         y="1007.0934"
         style="font-style:normal;font-variant:normal;font-weight:bold;font-stretch:normal;font-size:16.25px;font-family:'Swis721 BT';-inkscape-font-specification:'Swis721 BT Bold';letter-spacing:-0.99999988px;fill:#ffffff">Building and</tspan></text>
    <g
       id="g4205"
       transform="translate(4.5202637,0.86292294)">
      <g
         style="font-style:normal;font-weight:normal;font-size:20px;line-height:125%;font-family:sans-serif;letter-spacing:0px;word-spacing:0px;fill:#ffffff;fill-opacity:1;stroke:none;stroke-width:1px;stroke-linecap:butt;stroke-linejoin:miter;stroke-opacity:1"
         id="text4873-0-59-0-00-3-4-2">
        <path
           d="m 36.629135,1026.3629 q -0.436401,0.6745 -1.142578,1.0315 -0.706177,0.3491 -1.642456,0.3491 -1.253662,0 -1.936035,-0.7141 -0.674439,-0.7141 -0.674439,-2.0312 0,-1.222 0.674439,-1.8647 0.682373,-0.6427 2.245483,-0.8807 0.357056,-0.055 0.936279,-0.1269 1.467896,-0.1905 1.467896,-0.849 0,-0.5237 -0.325317,-0.7459 -0.325318,-0.2301 -1.087037,-0.2301 -0.698242,0 -1.071167,0.2777 -0.372924,0.2777 -0.372924,0.7935 l 0,0.1269 -2.158203,0 0,-0.1587 q 0,-1.325 0.936279,-2.0788 0.936279,-0.7617 2.58667,-0.7617 1.809082,0 2.769165,0.6268 0.968017,0.6268 0.968017,1.8091 l 0,4.9035 q 0,0.5396 0.111084,0.8094 0.111084,0.2618 0.372925,0.3967 l 0,0.3888 -2.404175,0 q -0.119018,-0.2222 -0.182495,-0.492 -0.06348,-0.2697 -0.07141,-0.5792 z m -0.03967,-3.1738 q -0.563354,0.2618 -1.301269,0.4205 -0.729981,0.1587 -0.753784,0.1666 -0.610962,0.1746 -0.856934,0.4364 -0.238037,0.2619 -0.238037,0.7221 0,0.4761 0.309448,0.7617 0.309448,0.2777 0.83313,0.2777 0.936279,0 1.467895,-0.5237 0.539551,-0.5316 0.539551,-1.4441 l 0,-0.8172 z"
           style="font-style:normal;font-variant:normal;font-weight:bold;font-stretch:normal;font-size:16.25px;font-family:'Swis721 BT';-inkscape-font-specification:'Swis721 BT Bold';letter-spacing:-0.99999988px;fill:#ffffff"
           id="path4200" />
        <path
           d="m 39.826523,1027.4341 0,-8.6249 2.142334,0 0,1.4758 q 0.45227,-0.8886 1.055298,-1.3012 0.603027,-0.4206 1.436157,-0.4206 0.134888,0 0.206299,0.01 0.07934,0 0.126953,0.01 l 0.0079,2.3407 -0.769653,0 q -0.944214,0 -1.420288,0.4919 -0.476074,0.492 -0.476074,1.46 l 0,4.5624 -2.30896,0 z"
           style="font-style:normal;font-variant:normal;font-weight:bold;font-stretch:normal;font-size:16.25px;font-family:'Swis721 BT';-inkscape-font-specification:'Swis721 BT Bold';letter-spacing:-0.99999988px;fill:#ffffff"
           id="path4202" />
        <path
           d="m 46.983261,1023.1097 q 0,1.2854 0.523682,1.9837 0.531616,0.6982 1.507568,0.6982 0.960083,0 1.483765,-0.6982 0.531616,-0.6983 0.531616,-1.9837 0,-1.2774 -0.523682,-1.9677 -0.523681,-0.6983 -1.491699,-0.6983 -0.975952,0 -1.507568,0.6983 -0.523682,0.6903 -0.523682,1.9677 z m -2.340698,0 q 0,-2.1502 1.166382,-3.3801 1.166382,-1.2298 3.205566,-1.2298 2.03125,0 3.197632,1.2298 1.174316,1.2299 1.174316,3.3801 0,2.1582 -1.174316,3.3881 -1.166382,1.2299 -3.197632,1.2299 -2.039184,0 -3.205566,-1.2299 -1.166382,-1.2299 -1.166382,-3.3881 z"
           style="font-style:normal;font-variant:normal;font-weight:bold;font-stretch:normal;font-size:16.25px;font-family:'Swis721 BT';-inkscape-font-specification:'Swis721 BT Bold';letter-spacing:-0.99999988px;fill:#ffffff"
           id="path4204" />
        <path
           d="m 61.638168,1018.8092 0,8.6249 -2.261352,0 0,-1.0236 q -0.491944,0.6269 -1.150513,0.9442 -0.650635,0.3095 -1.467895,0.3095 -1.420288,0 -2.1344,-0.7459 -0.706177,-0.7458 -0.706177,-2.2296 l 0,-5.8795 2.30896,0 0,5.213 q 0,0.9204 0.309449,1.3172 0.309448,0.3887 1.023559,0.3887 0.809326,0 1.285401,-0.484 0.484008,-0.4919 0.484008,-1.333 l 0,-5.1019 2.30896,0 z"
           style="font-style:normal;font-variant:normal;font-weight:bold;font-stretch:normal;font-size:16.25px;font-family:'Swis721 BT';-inkscape-font-specification:'Swis721 BT Bold';letter-spacing:-0.99999988px;fill:#ffffff"
           id="path4206" />
        <path
           d="m 62.661484,1027.4341 0,-8.6249 2.261352,0 0,1.0236 q 0.484009,-0.6269 1.142578,-0.9363 0.65857,-0.3174 1.467896,-0.3174 1.428223,0 2.134399,0.7459 0.714112,0.7379 0.714112,2.2296 l 0,5.8795 -2.30896,0 0,-5.213 q 0,-0.9284 -0.317383,-1.3251 -0.309448,-0.3967 -1.015625,-0.3967 -0.817261,0 -1.293335,0.4919 -0.476074,0.484 -0.476074,1.3251 l 0,5.1178 -2.30896,0 z"
           style="font-style:normal;font-variant:normal;font-weight:bold;font-stretch:normal;font-size:16.25px;font-family:'Swis721 BT';-inkscape-font-specification:'Swis721 BT Bold';letter-spacing:-0.99999988px;fill:#ffffff"
           id="path4208" />
        <path
           d="m 79.300034,1015.7465 0,11.6876 -2.189942,0 0,-1.1664 q -0.499878,0.7538 -1.126709,1.1108 -0.618896,0.3492 -1.459961,0.3492 -1.594848,0 -2.58667,-1.2616 -0.983886,-1.2616 -0.983886,-3.3088 0,-2.0629 0.983886,-3.3483 0.991822,-1.2934 2.554932,-1.2934 0.83313,0 1.483765,0.3491 0.658569,0.3492 1.087036,1.0157 l 0,-4.1339 2.237549,0 z m -6.038208,7.3156 q 0,1.3092 0.491943,1.9995 0.491943,0.6824 1.420288,0.6824 0.92041,0 1.404419,-0.6824 0.484009,-0.6823 0.484009,-1.9995 0,-1.2219 -0.507813,-1.8805 -0.507812,-0.6665 -1.428222,-0.6665 -0.864869,0 -1.364747,0.6824 -0.499877,0.6744 -0.499877,1.8646 z"
           style="font-style:normal;font-variant:normal;font-weight:bold;font-stretch:normal;font-size:16.25px;font-family:'Swis721 BT';-inkscape-font-specification:'Swis721 BT Bold';letter-spacing:-0.99999988px;fill:#ffffff"
           id="path4210" />
      </g>
      <g
         style="font-style:normal;font-weight:normal;font-size:20px;line-height:125%;font-family:sans-serif;letter-spacing:0px;word-spacing:0px;fill:#ffffff;fill-opacity:1;stroke:none;stroke-width:1px;stroke-linecap:butt;stroke-linejoin:miter;stroke-opacity:1"
         id="text4873-0-59-0-00-5-5-8-6">
        <path
           d="m 40.119141,1005.8635 q -0.650635,0.8807 -1.483765,1.2933 -0.825195,0.4126 -1.94397,0.4126 -2.451782,0 -3.975219,-1.698 -1.515503,-1.7059 -1.515503,-4.4751 0,-2.79297 1.515503,-4.46716 1.515502,-1.6742 4.038696,-1.6742 2.197876,0 3.586426,1.0553 1.388549,1.04736 1.65039,2.88819 l -2.451782,0 q -0.222168,-0.91248 -0.912476,-1.38855 -0.682373,-0.47608 -1.785278,-0.47608 -1.467895,0 -2.30896,1.0791 -0.83313,1.07117 -0.83313,2.9675 0,1.9043 0.872803,2.9834 0.872803,1.0791 2.39624,1.0791 1.142578,0 1.912232,-0.6744 0.769653,-0.6744 0.952148,-1.8488 l -2.650146,0 0,-1.9995 4.840087,0 0,6.3239 -1.610717,0 -0.293579,-1.3806 z"
           style="font-style:normal;font-variant:normal;font-weight:bold;font-stretch:normal;font-size:16.25px;font-family:'Swis721 BT';-inkscape-font-specification:'Swis721 BT Bold';letter-spacing:-0.99999988px;fill:#ffffff"
           id="path4213" />
        <path
           d="m 48.45813,1004.6257 2.301025,0 q -0.349121,1.3647 -1.412353,2.1423 -1.055298,0.7697 -2.578736,0.7697 -1.872558,0 -2.967529,-1.2537 -1.094971,-1.2616 -1.094971,-3.4119 0,-2.1185 1.079102,-3.34042 1.079102,-1.22193 2.95166,-1.22193 1.983643,0 3.062744,1.20606 1.079102,1.19809 1.079102,3.41979 0,0.246 -0.0079,0.3729 0,0.1191 -0.01587,0.2301 l -5.760498,0 q 0.04761,1.0157 0.491943,1.5314 0.452271,0.5158 1.293335,0.5158 0.595093,0 0.975953,-0.2301 0.380859,-0.2381 0.603027,-0.73 z m -3.364258,-2.6026 3.395996,0 q -0.03174,-0.8728 -0.468139,-1.325 -0.428467,-0.4602 -1.237793,-0.4602 -0.753785,0 -1.190186,0.4602 -0.428467,0.4602 -0.499878,1.325 z"
           style="font-style:normal;font-variant:normal;font-weight:bold;font-stretch:normal;font-size:16.25px;font-family:'Swis721 BT';-inkscape-font-specification:'Swis721 BT Bold';letter-spacing:-0.99999988px;fill:#ffffff"
           id="path4215" />
        <path
           d="m 55.241943,1007.3076 q -0.317382,0.01 -0.761718,0.024 -0.436402,0.024 -0.55542,0.024 -1.325074,0 -1.817017,-0.492 -0.484009,-0.4999 -0.484009,-1.9598 l 0,-4.6655 -1.142578,0 0,-1.6187 1.142578,0 0,-2.35657 2.285157,0 0,2.35657 1.333007,0 0,1.6187 -1.333007,0 0,4.7766 q 0,0.3412 0.150756,0.4522 0.150757,0.1032 0.618897,0.1032 l 0.563354,0 0,1.7377 z"
           style="font-style:normal;font-variant:normal;font-weight:bold;font-stretch:normal;font-size:16.25px;font-family:'Swis721 BT';-inkscape-font-specification:'Swis721 BT Bold';letter-spacing:-0.99999988px;fill:#ffffff"
           id="path4217" />
        <path
           d="m 59.415283,1007.3076 q -0.317383,0.01 -0.761719,0.024 -0.436401,0.024 -0.555419,0.024 -1.325074,0 -1.817017,-0.492 -0.484009,-0.4999 -0.484009,-1.9598 l 0,-4.6655 -1.142578,0 0,-1.6187 1.142578,0 0,-2.35657 2.285156,0 0,2.35657 1.333008,0 0,1.6187 -1.333008,0 0,4.7766 q 0,0.3412 0.150757,0.4522 0.150757,0.1032 0.618897,0.1032 l 0.563354,0 0,1.7377 z"
           style="font-style:normal;font-variant:normal;font-weight:bold;font-stretch:normal;font-size:16.25px;font-family:'Swis721 BT';-inkscape-font-specification:'Swis721 BT Bold';letter-spacing:-0.99999988px;fill:#ffffff"
           id="path4219" />
        <path
           d="m 59.803833,997.65912 0,-2.10266 2.30896,0 0,2.10266 -2.30896,0 z m 0,9.58498 0,-8.6249 2.30896,0 0,8.6249 -2.30896,0 z"
           style="font-style:normal;font-variant:normal;font-weight:bold;font-stretch:normal;font-size:16.25px;font-family:'Swis721 BT';-inkscape-font-specification:'Swis721 BT Bold';letter-spacing:-0.99999988px;fill:#ffffff"
           id="path4221" />
        <path
           d="m 63.167847,1007.2441 0,-8.6249 2.261352,0 0,1.02356 q 0.484009,-0.62683 1.142578,-0.93628 0.65857,-0.31738 1.467896,-0.31738 1.428223,0 2.134399,0.74585 0.714112,0.73791 0.714112,2.22965 l 0,5.8795 -2.30896,0 0,-5.213 q 0,-0.9284 -0.317383,-1.3251 -0.309448,-0.3967 -1.015625,-0.3967 -0.817261,0 -1.293335,0.4919 -0.476074,0.484 -0.476074,1.3251 l 0,5.1178 -2.30896,0 z"
           style="font-style:normal;font-variant:normal;font-weight:bold;font-stretch:normal;font-size:16.25px;font-family:'Swis721 BT';-inkscape-font-specification:'Swis721 BT Bold';letter-spacing:-0.99999988px;fill:#ffffff"
           id="path4223" />
        <path
           d="m 73.768188,1002.7928 q 0,1.214 0.484009,1.8646 0.491944,0.6506 1.396485,0.6506 0.912475,0 1.388549,-0.6506 0.484009,-0.6506 0.484009,-1.8964 0,-1.1822 -0.499878,-1.8249 -0.491943,-0.6506 -1.404419,-0.6506 -0.880737,0 -1.364746,0.6585 -0.484009,0.6586 -0.484009,1.8488 z m -2.086792,5.2844 2.523194,-0.01 q 0.111084,0.4364 0.45227,0.6506 0.349121,0.2142 0.928345,0.2142 1.079102,0 1.507568,-0.4602 0.428467,-0.4522 0.428467,-1.6821 l 0,-0.7696 q -0.36499,0.6268 -0.952148,0.9283 -0.579224,0.2936 -1.452027,0.2936 -1.674194,0 -2.681884,-1.1902 -1.007691,-1.1981 -1.007691,-3.1818 0,-2.0947 0.983887,-3.32455 0.991821,-1.2378 2.666016,-1.2378 0.872802,0 1.483764,0.33326 0.618897,0.33325 1.007691,1.01562 l 0,-1.03943 2.189941,0 0,8.0536 q 0,1.3568 -0.253906,2.0709 -0.253906,0.7141 -0.864868,1.1981 -0.523682,0.4047 -1.333008,0.611 -0.801392,0.2142 -1.832886,0.2142 -1.729736,0 -2.721558,-0.7061 -0.991821,-0.7062 -1.071167,-1.9837 z"
           style="font-style:normal;font-variant:normal;font-weight:bold;font-stretch:normal;font-size:16.25px;font-family:'Swis721 BT';-inkscape-font-specification:'Swis721 BT Bold';letter-spacing:-0.99999988px;fill:#ffffff"
           id="path4225" />
      </g>
    </g>
  </g>
</svg>
