<?xml version="1.0" encoding="UTF-8" standalone="no"?>
<svg
   xmlns:dc="http://purl.org/dc/elements/1.1/"
   xmlns:cc="http://creativecommons.org/ns#"
   xmlns:rdf="http://www.w3.org/1999/02/22-rdf-syntax-ns#"
   xmlns:svg="http://www.w3.org/2000/svg"
   xmlns="http://www.w3.org/2000/svg"
   xmlns:sodipodi="http://sodipodi.sourceforge.net/DTD/sodipodi-0.dtd"
   xmlns:inkscape="http://www.inkscape.org/namespaces/inkscape"
   width="120"
   height="80"
   viewBox="0 0 120 80"
   id="svg2"
   version="1.1"
   inkscape:version="0.91 r13725"
   sodipodi:docname="Icon_AGOL_Sustainability_120x80px.svg">
  <defs
     id="defs4" />
  <sodipodi:namedview
     id="base"
     pagecolor="#ffffff"
     bordercolor="#666666"
     borderopacity="1.0"
     inkscape:pageopacity="0.0"
     inkscape:pageshadow="2"
     inkscape:zoom="2.8"
     inkscape:cx="8.1091663"
     inkscape:cy="37.611073"
     inkscape:document-units="px"
     inkscape:current-layer="layer1"
     showgrid="false"
     units="px"
     inkscape:window-width="1806"
     inkscape:window-height="1057"
     inkscape:window-x="106"
     inkscape:window-y="-8"
     inkscape:window-maximized="1" />
  <metadata
     id="metadata7">
    <rdf:RDF>
      <cc:Work
         rdf:about="">
        <dc:format>image/svg+xml</dc:format>
        <dc:type
           rdf:resource="http://purl.org/dc/dcmitype/StillImage" />
        <dc:title />
      </cc:Work>
    </rdf:RDF>
  </metadata>
  <g
     inkscape:label="Layer 1"
     inkscape:groupmode="layer"
     id="layer1"
     transform="translate(0,-972.36216)">
    <rect
       style="opacity:1;fill:#7ac643;fill-opacity:1"
       id="rect4136-4-5-6-2-0-6-4-6-8-8-6"
       width="120"
       height="80"
       x="0"
       y="972.36212" />
    <g
       style="font-style:normal;font-weight:normal;font-size:16.00000763px;line-height:125%;font-family:sans-serif;letter-spacing:0px;word-spacing:0px;fill:#ffffff;fill-opacity:1;stroke:none;stroke-width:1px;stroke-linecap:butt;stroke-linejoin:miter;stroke-opacity:1"
       id="text4873-0-59-0-00-5-5-8-0-9">
      <path
         d="m 42.822144,1018.0592 -4.030762,-11.6876 2.666015,0 2.483521,8.7439 2.531128,-8.7439 2.634277,0 -3.983154,11.6876 -2.301025,0 z"
         style="font-style:normal;font-variant:normal;font-weight:bold;font-stretch:normal;font-size:16.25px;font-family:'Swis721 BT';-inkscape-font-specification:'Swis721 BT Bold';letter-spacing:-0.80000031px;fill:#ffffff;fill-opacity:1"
         id="path4137" />
      <path
         d="m 49.155322,1008.4742 0,-2.1026 2.30896,0 0,2.1026 -2.30896,0 z m 0,9.585 0,-8.6249 2.30896,0 0,8.6249 -2.30896,0 z"
         style="font-style:normal;font-variant:normal;font-weight:bold;font-stretch:normal;font-size:16.25px;font-family:'Swis721 BT';-inkscape-font-specification:'Swis721 BT Bold';letter-spacing:-0.80000031px;fill:#ffffff;fill-opacity:1"
         id="path4139" />
      <path
         d="m 52.235327,1015.2504 2.301025,0 q 0.03174,0.6585 0.476074,0.9839 0.444336,0.3173 1.333008,0.3173 0.674439,0 1.039429,-0.2221 0.372925,-0.2301 0.372925,-0.6427 0,-0.5872 -1.380616,-0.8808 -0.563354,-0.119 -0.896606,-0.2063 -1.682129,-0.4284 -2.340698,-1.0156 -0.650635,-0.5872 -0.650635,-1.5869 0,-1.3251 0.952148,-2.0947 0.960083,-0.7776 2.594605,-0.7776 1.729736,0 2.713623,0.7696 0.991821,0.7697 1.055298,2.1662 l -2.245484,0 q -0.0238,-0.5475 -0.420532,-0.849 -0.388794,-0.3015 -1.087036,-0.3015 -0.658569,0 -0.983887,0.1983 -0.317382,0.1984 -0.317382,0.5951 0,0.5158 1.721801,0.9125 0.396729,0.087 0.626831,0.1428 1.721802,0.4047 2.348633,0.976 0.634766,0.5713 0.634766,1.6107 0,1.4679 -1.039429,2.2375 -1.031494,0.7697 -3.007202,0.7697 -1.785278,0 -2.792969,-0.8014 -1.00769,-0.8014 -1.00769,-2.2058 l 0,-0.095 z"
         style="font-style:normal;font-variant:normal;font-weight:bold;font-stretch:normal;font-size:16.25px;font-family:'Swis721 BT';-inkscape-font-specification:'Swis721 BT Bold';letter-spacing:-0.80000031px;fill:#ffffff;fill-opacity:1"
         id="path4141" />
      <path
         d="m 60.853661,1008.4742 0,-2.1026 2.30896,0 0,2.1026 -2.30896,0 z m 0,9.585 0,-8.6249 2.30896,0 0,8.6249 -2.30896,0 z"
         style="font-style:normal;font-variant:normal;font-weight:bold;font-stretch:normal;font-size:16.25px;font-family:'Swis721 BT';-inkscape-font-specification:'Swis721 BT Bold';letter-spacing:-0.80000031px;fill:#ffffff;fill-opacity:1"
         id="path4143" />
      <path
         d="m 66.321972,1013.7349 q 0,1.2854 0.523682,1.9836 0.531616,0.6982 1.507568,0.6982 0.960083,0 1.483765,-0.6982 0.531616,-0.6982 0.531616,-1.9836 0,-1.2775 -0.523682,-1.9678 -0.523682,-0.6983 -1.491699,-0.6983 -0.975952,0 -1.507568,0.6983 -0.523682,0.6903 -0.523682,1.9678 z m -2.340698,0 q 0,-2.1503 1.166381,-3.3802 1.166382,-1.2298 3.205567,-1.2298 2.03125,0 3.197632,1.2298 1.174316,1.2299 1.174316,3.3802 0,2.1582 -1.174316,3.388 -1.166382,1.2299 -3.197632,1.2299 -2.039185,0 -3.205567,-1.2299 -1.166381,-1.2298 -1.166381,-3.388 z"
         style="font-style:normal;font-variant:normal;font-weight:bold;font-stretch:normal;font-size:16.25px;font-family:'Swis721 BT';-inkscape-font-specification:'Swis721 BT Bold';letter-spacing:-0.80000031px;fill:#ffffff;fill-opacity:1"
         id="path4145" />
      <path
         d="m 73.488281,1018.0592 0,-8.6249 2.261353,0 0,1.0236 q 0.484009,-0.6268 1.142578,-0.9363 0.658569,-0.3174 1.467895,-0.3174 1.428223,0 2.1344,0.7459 0.714111,0.7379 0.714111,2.2296 l 0,5.8795 -2.30896,0 0,-5.213 q 0,-0.9284 -0.317383,-1.3251 -0.309448,-0.3967 -1.015625,-0.3967 -0.81726,0 -1.293335,0.4919 -0.476074,0.484 -0.476074,1.3251 l 0,5.1178 -2.30896,0 z"
         style="font-style:normal;font-variant:normal;font-weight:bold;font-stretch:normal;font-size:16.25px;font-family:'Swis721 BT';-inkscape-font-specification:'Swis721 BT Bold';letter-spacing:-0.80000031px;fill:#ffffff;fill-opacity:1"
         id="path4147" />
    </g>
  </g>
</svg>
