<svg
   xmlns:dc="http://purl.org/dc/elements/1.1/"
   xmlns:cc="http://creativecommons.org/ns#"
   xmlns:rdf="http://www.w3.org/1999/02/22-rdf-syntax-ns#"
   xmlns:svg="http://www.w3.org/2000/svg"
   xmlns="http://www.w3.org/2000/svg"
   xmlns:sodipodi="http://sodipodi.sourceforge.net/DTD/sodipodi-0.dtd"
   xmlns:inkscape="http://www.inkscape.org/namespaces/inkscape"
   width="120"
   height="80"
   viewBox="0 0 120 80"
   id="svg2"
   version="1.1"
   inkscape:version="0.91 r13725"
   sodipodi:docname="Icon_AGOL_ViewAll_120x80px.svg">
  <defs
     id="defs4" />
  <sodipodi:namedview
     id="base"
     pagecolor="#ffffff"
     bordercolor="#666666"
     borderopacity="1.0"
     inkscape:pageopacity="0.0"
     inkscape:pageshadow="2"
     inkscape:zoom="2.8"
     inkscape:cx="-108.62417"
     inkscape:cy="-0.43183022"
     inkscape:document-units="px"
     inkscape:current-layer="layer1"
     showgrid="false"
     units="px"
     inkscape:window-width="1806"
     inkscape:window-height="1057"
     inkscape:window-x="106"
     inkscape:window-y="-8"
     inkscape:window-maximized="1" />
  <metadata
     id="metadata7">
    <rdf:RDF>
      <cc:Work
         rdf:about="">
        <dc:format>image/svg+xml</dc:format>
        <dc:type
           rdf:resource="http://purl.org/dc/dcmitype/StillImage" />
        <dc:title />
      </cc:Work>
    </rdf:RDF>
  </metadata>
  <g
     inkscape:label="Layer 1"
     inkscape:groupmode="layer"
     id="layer1"
     transform="translate(0,-972.36216)">
    <rect
       style="opacity:1;fill:#ffffff;fill-opacity:1"
       id="rect4136-4-5-6-2-0-6-4-6-8-1-4"
       width="120"
       height="80"
       x="0"
       y="972.36218" />
    <rect
       style="opacity:0.5;fill:#152128;fill-opacity:1"
       id="rect4136-4-5-6-2-0-6-4-6-8-1-4-3"
       width="120"
       height="80"
       x="0"
       y="972.36218" />
    <g
       id="g4153"
       transform="translate(0,-1.000005)">
      <g
         id="text-3"
         style="font-weight:bold;font-size:24.36388969px;font-family:Roboto, 'Avenir Next W01', 'Avenir Next', Avenir, 'Helvetica Neue', Helvetica, Arial, sans-serif;text-anchor:start;fill:#ffffff;stroke-width:0">
        <path
           id="path4139"
           style="font-size:16.25px"
           d="m 35.018005,1002.7622 -4.157714,-11.63207 2.546997,0 2.943725,8.60901 2.848511,-8.60901 2.491455,0 -4.165649,11.63207 -2.507325,0 z"
           inkscape:connector-curvature="0" />
        <path
           id="path4141"
           style="font-size:16.25px"
           d="m 42.603455,993.19312 0,-2.06299 2.229614,0 0,2.06299 -2.229614,0 z m 0,9.56908 0,-8.42651 2.229614,0 0,8.42651 -2.229614,0 z"
           inkscape:connector-curvature="0" />
        <path
           id="path4143"
           style="font-size:16.25px"
           d="m 51.990051,1000.0803 2.22168,0.3729 q -0.428467,1.222 -1.356812,1.8647 -0.92041,0.6347 -2.30896,0.6347 -2.197876,0 -3.253173,-1.4361 -0.83313,-1.1505 -0.83313,-2.90407 0,-2.09473 1.09497,-3.27698 1.094971,-1.19019 2.769166,-1.19019 1.880493,0 2.967529,1.24573 1.087036,1.23779 1.039429,3.80066 l -5.585938,0 q 0.0238,0.99185 0.539551,1.54725 0.515747,0.5475 1.2854,0.5475 0.523682,0 0.880737,-0.2857 0.357056,-0.2856 0.539551,-0.9204 z m 0.126953,-2.2534 q -0.0238,-0.96801 -0.499878,-1.46789 -0.476074,-0.50781 -1.158447,-0.50781 -0.72998,0 -1.206054,0.53161 -0.476075,0.53162 -0.46814,1.44409 l 3.332519,0 z"
           inkscape:connector-curvature="0" />
        <path
           id="path4145"
           style="font-size:16.25px"
           d="m 57.726746,1002.7622 -2.666016,-8.42651 2.166138,0 1.578979,5.52246 1.452027,-5.52246 2.150268,0 1.404419,5.52246 1.610718,-5.52246 2.197876,0 -2.705689,8.42651 -2.142334,0 -1.452026,-5.4193 -1.428223,5.4193 -2.166137,0 z"
           inkscape:connector-curvature="0" />
        <path
           id="path4147"
           style="font-size:16.25px"
           d="m 75.024109,996.90649 -2.023316,-0.36499 q 0.341187,-1.22192 1.174317,-1.80908 0.83313,-0.58716 2.475586,-0.58716 1.491699,0 2.221679,0.35706 0.729981,0.34912 1.02356,0.89661 0.301514,0.53955 0.301514,1.99157 l -0.0238,2.60254 q 0,1.11086 0.103149,1.64246 0.111084,0.5237 0.404664,1.1267 l -2.205811,0 q -0.08728,-0.2222 -0.214233,-0.6586 -0.05554,-0.1983 -0.07935,-0.2618 -0.571289,0.5554 -1.221924,0.8331 -0.650635,0.2777 -1.38855,0.2777 -1.301269,0 -2.055053,-0.7061 -0.74585,-0.7062 -0.74585,-1.7853 0,-0.71413 0.341186,-1.26955 0.341187,-0.56335 0.952149,-0.85693 0.618896,-0.30152 1.777344,-0.52368 1.56311,-0.29358 2.166137,-0.54749 l 0,-0.22217 q 0,-0.6427 -0.317382,-0.91247 -0.317383,-0.27771 -1.198121,-0.27771 -0.595092,0 -0.928344,0.23803 -0.333252,0.23011 -0.539551,0.81726 z m 2.983398,1.80909 q -0.428466,0.14282 -1.356811,0.34118 -0.928345,0.19837 -1.213989,0.3888 -0.436402,0.30944 -0.436402,0.78554 0,0.4681 0.349121,0.8093 0.349121,0.3412 0.888672,0.3412 0.603027,0 1.150513,-0.3967 0.404663,-0.3016 0.531616,-0.738 0.08728,-0.2856 0.08728,-1.08699 l 0,-0.44433 z"
           inkscape:connector-curvature="0" />
        <path
           id="path4149"
           style="font-size:16.25px"
           d="m 82.403259,1002.7622 0,-11.63207 2.229615,0 0,11.63207 -2.229615,0 z"
           inkscape:connector-curvature="0" />
        <path
           id="path4151"
           style="font-size:16.25px"
           d="m 86.910095,1002.7622 0,-11.63207 2.229614,0 0,11.63207 -2.229614,0 z"
           inkscape:connector-curvature="0" />
      </g>
      <path
         stroke="null"
         d="m 60,1011.5942 c -6.627403,0 -12,5.3726 -12,12 0,6.6273 5.372606,12 12,12 6.627403,0 12,-5.3727 12,-12 0,-6.6274 -5.372589,-12 -12,-12 z m -1.927869,20.0296 -2.919694,-2.9222 5.108349,-5.1081 -5.108349,-5.108 2.919694,-2.9197 8.02866,8.0277 -8.02866,8.0303 z"
         id="arrow-4"
         inkscape:connector-curvature="0"
         style="fill:#ffffff;stroke-width:0" />
    </g>
  </g>
</svg>
