<?xml version="1.0" encoding="UTF-8" standalone="no"?>
<!-- Created with Inkscape (http://www.inkscape.org/) -->

<svg
   xmlns:dc="http://purl.org/dc/elements/1.1/"
   xmlns:cc="http://creativecommons.org/ns#"
   xmlns:rdf="http://www.w3.org/1999/02/22-rdf-syntax-ns#"
   xmlns:svg="http://www.w3.org/2000/svg"
   xmlns="http://www.w3.org/2000/svg"
   xmlns:sodipodi="http://sodipodi.sourceforge.net/DTD/sodipodi-0.dtd"
   xmlns:inkscape="http://www.inkscape.org/namespaces/inkscape"
   width="120"
   height="80"
   viewBox="0 0 120 80.000001"
   id="svg2"
   version="1.1"
   inkscape:version="0.91 r13725"
   sodipodi:docname="Icon_AGOL_PublicDomain_120x80px.svg">
  <defs
     id="defs4" />
  <sodipodi:namedview
     id="base"
     pagecolor="#ffffff"
     bordercolor="#666666"
     borderopacity="1.0"
     inkscape:pageopacity="0.0"
     inkscape:pageshadow="2"
     inkscape:zoom="2.8"
     inkscape:cx="59.400664"
     inkscape:cy="0.68965149"
     inkscape:document-units="px"
     inkscape:current-layer="text4873-0-59-0-00-5-5-2"
     showgrid="false"
     units="px"
     inkscape:window-width="1806"
     inkscape:window-height="1057"
     inkscape:window-x="106"
     inkscape:window-y="-8"
     inkscape:window-maximized="1" />
  <metadata
     id="metadata7">
    <rdf:RDF>
      <cc:Work
         rdf:about="">
        <dc:format>image/svg+xml</dc:format>
        <dc:type
           rdf:resource="http://purl.org/dc/dcmitype/StillImage" />
        <dc:title></dc:title>
      </cc:Work>
    </rdf:RDF>
  </metadata>
  <g
     inkscape:label="Layer 1"
     inkscape:groupmode="layer"
     id="layer1"
     transform="translate(0,-972.36216)">
    <g
       style="font-style:normal;font-weight:normal;font-size:20px;line-height:125%;font-family:sans-serif;letter-spacing:0px;word-spacing:0px;fill:#ffffff;fill-opacity:1;stroke:none;stroke-width:1px;stroke-linecap:butt;stroke-linejoin:miter;stroke-opacity:1"
       id="text4873-0-59-0-00-5-5-8-0-5-2">
      <g
         style="font-style:normal;font-weight:normal;font-size:20px;line-height:125%;font-family:sans-serif;letter-spacing:0px;word-spacing:0px;fill:#ffffff;fill-opacity:1;stroke:none;stroke-width:1px;stroke-linecap:butt;stroke-linejoin:miter;stroke-opacity:1"
         id="text4873-0-59-0-00-5-5-8-0">
        <g
           style="font-style:normal;font-weight:normal;font-size:20px;line-height:125%;font-family:sans-serif;letter-spacing:0px;word-spacing:0px;fill:#ffffff;fill-opacity:1;stroke:none;stroke-width:1px;stroke-linecap:butt;stroke-linejoin:miter;stroke-opacity:1"
           id="text4873-0-59-0-00-5-5-8-0-3" />
        <g
           style="font-style:normal;font-weight:normal;font-size:20px;line-height:125%;font-family:sans-serif;letter-spacing:0px;word-spacing:0px;fill:#ffffff;fill-opacity:1;stroke:none;stroke-width:1px;stroke-linecap:butt;stroke-linejoin:miter;stroke-opacity:1"
           id="text4873-0-59-0-00-5-5-8-0-5-9">
          <rect
             style="opacity:1;fill:#fdbb30;fill-opacity:1"
             id="rect4136-4-5-6-2-0-6-4-1-8"
             width="120"
             height="80"
             x="-1.494751e-007"
             y="972.36218" />
          <g
             style="font-style:normal;font-weight:normal;font-size:20px;line-height:125%;font-family:sans-serif;letter-spacing:0px;word-spacing:0px;fill:#152128;fill-opacity:1;stroke:none;stroke-width:1px;stroke-linecap:butt;stroke-linejoin:miter;stroke-opacity:1"
             id="text4873-0-59-0-00-3-7">
            <path
               d="m 42.346191,1015.5162 0,11.6877 -2.189941,0 0,-1.1664 q -0.499878,0.7538 -1.126709,1.1108 -0.618896,0.3491 -1.459961,0.3491 -1.594849,0 -2.58667,-1.2616 -0.983887,-1.2616 -0.983887,-3.3087 0,-2.063 0.983887,-3.3484 0.991821,-1.2933 2.554932,-1.2933 0.83313,0 1.483764,0.3491 0.65857,0.3491 1.087037,1.0156 l 0,-4.1339 2.237548,0 z m -6.038208,7.3157 q 0,1.3092 0.491944,1.9995 0.491943,0.6824 1.420288,0.6824 0.92041,0 1.404419,-0.6824 0.484009,-0.6824 0.484009,-1.9995 0,-1.2219 -0.507813,-1.8805 -0.507812,-0.6665 -1.428223,-0.6665 -0.864868,0 -1.364746,0.6824 -0.499878,0.6744 -0.499878,1.8646 z"
               style="font-style:normal;font-variant:normal;font-weight:bold;font-stretch:normal;font-size:16.25px;font-family:'Swis721 BT';-inkscape-font-specification:'Swis721 BT Bold';letter-spacing:-0.99999988px;fill:#152128;fill-opacity:1"
               id="path4683" />
            <path
               d="m 45.321411,1022.8795 q 0,1.2854 0.523682,1.9837 0.531616,0.6982 1.507568,0.6982 0.960083,0 1.483765,-0.6982 0.531616,-0.6983 0.531616,-1.9837 0,-1.2774 -0.523682,-1.9678 -0.523681,-0.6982 -1.491699,-0.6982 -0.975952,0 -1.507568,0.6982 -0.523682,0.6904 -0.523682,1.9678 z m -2.340698,0 q 0,-2.1503 1.166382,-3.3801 1.166382,-1.2299 3.205566,-1.2299 2.03125,0 3.197632,1.2299 1.174316,1.2298 1.174316,3.3801 0,2.1582 -1.174316,3.3881 -1.166382,1.2298 -3.197632,1.2298 -2.039184,0 -3.205566,-1.2298 -1.166382,-1.2299 -1.166382,-3.3881 z"
               style="font-style:normal;font-variant:normal;font-weight:bold;font-stretch:normal;font-size:16.25px;font-family:'Swis721 BT';-inkscape-font-specification:'Swis721 BT Bold';letter-spacing:-0.99999988px;fill:#152128;fill-opacity:1"
               id="path4685" />
            <path
               d="m 52.28772,1027.2039 0,-8.6249 2.189941,0 0,0.9521 q 0.484009,-0.5951 1.079102,-0.8966 0.595092,-0.3015 1.317138,-0.3015 0.817261,0 1.396485,0.3095 0.579223,0.3015 1.00769,0.96 0.452271,-0.6347 1.071167,-0.9521 0.618897,-0.3174 1.380615,-0.3174 1.30127,0 2.062989,0.7617 0.761718,0.7617 0.761718,2.0789 l 0,6.0303 -2.277221,0 0,-5.5542 q 0,-0.6269 -0.341187,-0.9681 -0.333252,-0.3491 -0.936279,-0.3491 -0.674439,0 -1.071167,0.4444 -0.396729,0.4364 -0.396729,1.1981 l 0,5.2289 -2.253418,0 0,-5.5384 q 0,-0.6347 -0.333252,-0.9839 -0.325317,-0.3491 -0.92041,-0.3491 -0.674438,0 -1.071167,0.4444 -0.388794,0.4443 -0.388794,1.2139 l 0,5.2131 -2.277221,0 z"
               style="font-style:normal;font-variant:normal;font-weight:bold;font-stretch:normal;font-size:16.25px;font-family:'Swis721 BT';-inkscape-font-specification:'Swis721 BT Bold';letter-spacing:-0.99999988px;fill:#152128;fill-opacity:1"
               id="path4687" />
            <path
               d="m 70.481445,1026.1327 q -0.436401,0.6744 -1.142578,1.0315 -0.706177,0.3491 -1.642456,0.3491 -1.253662,0 -1.936035,-0.7141 -0.674439,-0.7141 -0.674439,-2.0313 0,-1.2219 0.674439,-1.8646 0.682373,-0.6427 2.245483,-0.8807 0.357056,-0.056 0.93628,-0.127 1.467895,-0.1904 1.467895,-0.849 0,-0.5237 -0.325317,-0.7458 -0.325318,-0.2301 -1.087036,-0.2301 -0.698243,0 -1.071167,0.2777 -0.372925,0.2777 -0.372925,0.7934 l 0,0.127 -2.158203,0 0,-0.1587 q 0,-1.3251 0.936279,-2.0789 0.936279,-0.7617 2.58667,-0.7617 1.809082,0 2.769165,0.6269 0.968018,0.6268 0.968018,1.809 l 0,4.9036 q 0,0.5396 0.111084,0.8093 0.111084,0.2619 0.372924,0.3968 l 0,0.3888 -2.404174,0 q -0.119019,-0.2222 -0.182496,-0.492 -0.06348,-0.2698 -0.07141,-0.5792 z m -0.03967,-3.1738 q -0.563354,0.2618 -1.301269,0.4205 -0.729981,0.1587 -0.753784,0.1666 -0.610962,0.1746 -0.856934,0.4364 -0.238037,0.2619 -0.238037,0.7221 0,0.476 0.309448,0.7617 0.309449,0.2777 0.83313,0.2777 0.936279,0 1.467896,-0.5237 0.53955,-0.5316 0.53955,-1.4441 l 0,-0.8172 z"
               style="font-style:normal;font-variant:normal;font-weight:bold;font-stretch:normal;font-size:16.25px;font-family:'Swis721 BT';-inkscape-font-specification:'Swis721 BT Bold';letter-spacing:-0.99999988px;fill:#152128;fill-opacity:1"
               id="path4689" />
            <path
               d="m 73.72644,1017.6189 0,-2.1027 2.30896,0 0,2.1027 -2.30896,0 z m 0,9.585 0,-8.6249 2.30896,0 0,8.6249 -2.30896,0 z"
               style="font-style:normal;font-variant:normal;font-weight:bold;font-stretch:normal;font-size:16.25px;font-family:'Swis721 BT';-inkscape-font-specification:'Swis721 BT Bold';letter-spacing:-0.99999988px;fill:#152128;fill-opacity:1"
               id="path4691" />
            <path
               d="m 77.090454,1027.2039 0,-8.6249 2.261353,0 0,1.0235 q 0.484008,-0.6268 1.142578,-0.9362 0.658569,-0.3174 1.467895,-0.3174 1.428223,0 2.1344,0.7458 0.714111,0.7379 0.714111,2.2296 l 0,5.8796 -2.30896,0 0,-5.2131 q 0,-0.9283 -0.317383,-1.325 -0.309448,-0.3968 -1.015625,-0.3968 -0.817261,0 -1.293335,0.492 -0.476074,0.484 -0.476074,1.3251 l 0,5.1178 -2.30896,0 z"
               style="font-style:normal;font-variant:normal;font-weight:bold;font-stretch:normal;font-size:16.25px;font-family:'Swis721 BT';-inkscape-font-specification:'Swis721 BT Bold';letter-spacing:-0.99999988px;fill:#152128;fill-opacity:1"
               id="path4693" />
          </g>
          <g
             style="font-style:normal;font-weight:normal;font-size:20px;line-height:125%;font-family:sans-serif;letter-spacing:0px;word-spacing:0px;fill:#152128;fill-opacity:1;stroke:none;stroke-width:1px;stroke-linecap:butt;stroke-linejoin:miter;stroke-opacity:1"
             id="text4873-0-59-0-00-5-5-2">
            <path
               d="m 36.419067,1004.0068 2.324829,0 q 0.944214,0 1.372681,-0.3968 0.428467,-0.4046 0.428467,-1.2933 0,-0.8331 -0.420532,-1.2616 -0.420533,-0.4285 -1.253662,-0.4285 l -2.451783,0 0,3.3802 z m -0.01587,2.1185 0,4.1577 -2.404175,0 0,-11.6876 5.197144,0 q 1.84082,0 2.785034,0.96008 0.952149,0.95212 0.952149,2.80092 0,1.8091 -0.928345,2.793 -0.928345,0.9759 -2.650147,0.9759 l -2.95166,0 z"
               style="font-style:normal;font-variant:normal;font-weight:bold;font-stretch:normal;font-size:16.25px;font-family:'Swis721 BT';-inkscape-font-specification:'Swis721 BT Bold';letter-spacing:-0.99999988px;fill:#152128;fill-opacity:1"
               id="path4696" />
            <path
               d="m 51.518311,1001.6581 0,8.6249 -2.261353,0 0,-1.0235 q -0.491943,0.6268 -1.150513,0.9442 -0.650634,0.3094 -1.467895,0.3094 -1.420288,0 -2.1344,-0.7458 -0.706176,-0.7459 -0.706176,-2.2296 l 0,-5.8796 2.30896,0 0,5.2131 q 0,0.9204 0.309448,1.3171 0.309448,0.3888 1.023559,0.3888 0.809327,0 1.285401,-0.484 0.484009,-0.492 0.484009,-1.333 l 0,-5.102 2.30896,0 z"
               style="font-style:normal;font-variant:normal;font-weight:bold;font-stretch:normal;font-size:16.25px;font-family:'Swis721 BT';-inkscape-font-specification:'Swis721 BT Bold';letter-spacing:-0.99999988px;fill:#152128;fill-opacity:1"
               id="path4698" />
            <path
               d="m 52.605103,998.5954 2.245483,0 0,4.1339 q 0.428467,-0.6744 1.071167,-1.0156 0.650635,-0.3491 1.47583,-0.3491 1.56311,0 2.554932,1.2933 0.991821,1.2854 0.991821,3.3484 0,2.0471 -0.991821,3.3087 -0.991822,1.2616 -2.58667,1.2616 -0.83313,0 -1.452027,-0.3491 -0.610962,-0.3491 -1.110839,-1.1109 l 0,1.1664 -2.197876,0 0,-11.6876 z m 6.046142,7.3157 q 0,-1.1902 -0.499878,-1.8647 -0.499878,-0.6823 -1.37268,-0.6823 -0.920411,0 -1.428223,0.6665 -0.499878,0.6585 -0.499878,1.8805 0,1.3171 0.476074,1.9995 0.484009,0.6824 1.404419,0.6824 0.936279,0 1.428223,-0.6824 0.491943,-0.6903 0.491943,-1.9995 z"
               style="font-style:normal;font-variant:normal;font-weight:bold;font-stretch:normal;font-size:16.25px;font-family:'Swis721 BT';-inkscape-font-specification:'Swis721 BT Bold';letter-spacing:-0.99999988px;fill:#152128;fill-opacity:1"
               id="path4700" />
            <path
               d="m 61.602661,1010.283 0,-11.6876 2.30896,0 0,11.6876 -2.30896,0 z"
               style="font-style:normal;font-variant:normal;font-weight:bold;font-stretch:normal;font-size:16.25px;font-family:'Swis721 BT';-inkscape-font-specification:'Swis721 BT Bold';letter-spacing:-0.99999988px;fill:#152128;fill-opacity:1"
               id="path4702" />
            <path
               d="m 65.046021,1000.6981 0,-2.1027 2.308959,0 0,2.1027 -2.308959,0 z m 0,9.5849 0,-8.6249 2.308959,0 0,8.6249 -2.308959,0 z"
               style="font-style:normal;font-variant:normal;font-weight:bold;font-stretch:normal;font-size:16.25px;font-family:'Swis721 BT';-inkscape-font-specification:'Swis721 BT Bold';letter-spacing:-0.99999988px;fill:#152128;fill-opacity:1"
               id="path4704" />
            <path
               d="m 73.623047,1007.0298 2.277222,0 q -0.142823,1.6425 -1.198121,2.5947 -1.055297,0.9521 -2.713623,0.9521 -1.880493,0 -2.95166,-1.2219 -1.063232,-1.2299 -1.063232,-3.396 0,-2.1582 1.087036,-3.3801 1.094971,-1.2299 3.007202,-1.2299 1.674194,0 2.681885,0.8887 1.015625,0.8886 1.134643,2.4756 l -2.29309,0 q -0.09521,-0.6904 -0.484009,-1.0553 -0.388794,-0.365 -1.02356,-0.365 -0.856933,0 -1.2854,0.6744 -0.420532,0.6744 -0.420532,2.0233 0,1.2457 0.436401,1.9202 0.444336,0.6665 1.269531,0.6665 0.6427,0 1.031494,-0.3888 0.388794,-0.3888 0.507813,-1.1585 z"
               style="font-style:normal;font-variant:normal;font-weight:bold;font-stretch:normal;font-size:16.25px;font-family:'Swis721 BT';-inkscape-font-specification:'Swis721 BT Bold';letter-spacing:-0.99999988px;fill:#152128;fill-opacity:1"
               id="path4706" />
          </g>
        </g>
      </g>
    </g>
  </g>
</svg>
