<?xml version="1.0" encoding="UTF-8" standalone="no"?>
<!-- Created with Inkscape (http://www.inkscape.org/) -->

<svg
   xmlns:dc="http://purl.org/dc/elements/1.1/"
   xmlns:cc="http://creativecommons.org/ns#"
   xmlns:rdf="http://www.w3.org/1999/02/22-rdf-syntax-ns#"
   xmlns:svg="http://www.w3.org/2000/svg"
   xmlns="http://www.w3.org/2000/svg"
   xmlns:sodipodi="http://sodipodi.sourceforge.net/DTD/sodipodi-0.dtd"
   xmlns:inkscape="http://www.inkscape.org/namespaces/inkscape"
   width="120"
   height="80"
   viewBox="0 0 120 80"
   id="svg2"
   version="1.1"
   inkscape:version="0.91 r13725"
   sodipodi:docname="Icon_AGOL_Business_120x80px.svg">
  <defs
     id="defs4" />
  <sodipodi:namedview
     id="base"
     pagecolor="#ffffff"
     bordercolor="#666666"
     borderopacity="1.0"
     inkscape:pageopacity="0.0"
     inkscape:pageshadow="2"
     inkscape:zoom="2.8"
     inkscape:cx="43.594311"
     inkscape:cy="41.182501"
     inkscape:document-units="px"
     inkscape:current-layer="layer1"
     showgrid="false"
     units="px"
     inkscape:window-width="1806"
     inkscape:window-height="1057"
     inkscape:window-x="106"
     inkscape:window-y="-8"
     inkscape:window-maximized="1" />
  <metadata
     id="metadata7">
    <rdf:RDF>
      <cc:Work
         rdf:about="">
        <dc:format>image/svg+xml</dc:format>
        <dc:type
           rdf:resource="http://purl.org/dc/dcmitype/StillImage" />
        <dc:title />
      </cc:Work>
    </rdf:RDF>
  </metadata>
  <g
     inkscape:label="Layer 1"
     inkscape:groupmode="layer"
     id="layer1"
     transform="translate(0,-972.36216)">
    <rect
       style="opacity:1;fill:#56beeb;fill-opacity:1"
       id="rect4136-4-5-6-2-0-6-4-6-8-81"
       width="120"
       height="80"
       x="0"
       y="972.36218" />
    <g
       style="font-style:normal;font-weight:normal;font-size:20px;line-height:125%;font-family:sans-serif;letter-spacing:0px;word-spacing:0px;fill:#ffffff;fill-opacity:1;stroke:none;stroke-width:1px;stroke-linecap:butt;stroke-linejoin:miter;stroke-opacity:1"
       id="text4873-0-59-0-00-5-5-8-0">
      <path
         d="m 31.051575,1015.9486 2.84851,0 q 1.007691,0 1.467896,-0.365 0.460205,-0.365 0.460205,-1.1505 0,-0.8173 -0.45227,-1.1743 -0.452271,-0.365 -1.4917,-0.365 l -2.832641,0 0,3.0548 z m 0,-5.0543 2.745361,0 q 0.888672,0 1.30127,-0.3015 0.412597,-0.3095 0.412597,-0.968 0,-0.6427 -0.404663,-0.9284 -0.396728,-0.2936 -1.325073,-0.2936 l -2.729492,0 0,2.4915 z m -2.301026,7.1649 0,-11.6876 5.506592,0 q 1.793213,0 2.729492,0.7617 0.944214,0.7538 0.944214,2.1979 0,0.8886 -0.349121,1.4837 -0.349121,0.5951 -1.047363,0.9205 0.904541,0.3649 1.348877,1.0552 0.45227,0.6824 0.45227,1.706 0,1.7059 -1.11084,2.6343 -1.110839,0.9283 -3.150024,0.9283 l -5.324097,0 z"
         style="font-style:normal;font-variant:normal;font-weight:bold;font-stretch:normal;font-size:16.25px;font-family:'Swis721 BT';-inkscape-font-specification:'Swis721 BT Bold';letter-spacing:-0.99999988px;fill:#ffffff"
         id="path4137" />
      <path
         d="m 46.698303,1009.4343 0,8.6249 -2.261352,0 0,-1.0236 q -0.491944,0.6269 -1.150513,0.9443 -0.650635,0.3094 -1.467896,0.3094 -1.420288,0 -2.134399,-0.7458 -0.706177,-0.7459 -0.706177,-2.2297 l 0,-5.8795 2.30896,0 0,5.213 q 0,0.9204 0.309449,1.3172 0.309448,0.3888 1.023559,0.3888 0.809326,0 1.2854,-0.484 0.484009,-0.492 0.484009,-1.333 l 0,-5.102 2.30896,0 z"
         style="font-style:normal;font-variant:normal;font-weight:bold;font-stretch:normal;font-size:16.25px;font-family:'Swis721 BT';-inkscape-font-specification:'Swis721 BT Bold';letter-spacing:-0.99999988px;fill:#ffffff"
         id="path4139" />
      <path
         d="m 47.23761,1015.2504 2.301025,0 q 0.03174,0.6585 0.476074,0.9839 0.444336,0.3173 1.333008,0.3173 0.674439,0 1.039429,-0.2221 0.372925,-0.2301 0.372925,-0.6427 0,-0.5872 -1.380615,-0.8808 -0.563355,-0.119 -0.896607,-0.2063 -1.682129,-0.4284 -2.340698,-1.0156 -0.650635,-0.5872 -0.650635,-1.5869 0,-1.3251 0.952149,-2.0947 0.960083,-0.7776 2.594604,-0.7776 1.729736,0 2.713623,0.7696 0.991821,0.7697 1.055298,2.1662 l -2.245483,0 q -0.0238,-0.5475 -0.420533,-0.849 -0.388794,-0.3015 -1.087036,-0.3015 -0.658569,0 -0.983887,0.1983 -0.317382,0.1984 -0.317382,0.5951 0,0.5158 1.721801,0.9125 0.396729,0.087 0.626831,0.1428 1.721802,0.4047 2.348633,0.976 0.634766,0.5713 0.634766,1.6107 0,1.4679 -1.039429,2.2375 -1.031494,0.7697 -3.007202,0.7697 -1.785278,0 -2.792969,-0.8014 -1.00769,-0.8014 -1.00769,-2.2058 l 0,-0.095 z"
         style="font-style:normal;font-variant:normal;font-weight:bold;font-stretch:normal;font-size:16.25px;font-family:'Swis721 BT';-inkscape-font-specification:'Swis721 BT Bold';letter-spacing:-0.99999988px;fill:#ffffff"
         id="path4141" />
      <path
         d="m 55.655945,1008.4742 0,-2.1026 2.30896,0 0,2.1026 -2.30896,0 z m 0,9.585 0,-8.6249 2.30896,0 0,8.6249 -2.30896,0 z"
         style="font-style:normal;font-variant:normal;font-weight:bold;font-stretch:normal;font-size:16.25px;font-family:'Swis721 BT';-inkscape-font-specification:'Swis721 BT Bold';letter-spacing:-0.99999988px;fill:#ffffff"
         id="path4143" />
      <path
         d="m 59.019958,1018.0592 0,-8.6249 2.261353,0 0,1.0236 q 0.484009,-0.6268 1.142578,-0.9363 0.658569,-0.3174 1.467896,-0.3174 1.428222,0 2.134399,0.7459 0.714111,0.7379 0.714111,2.2296 l 0,5.8795 -2.30896,0 0,-5.213 q 0,-0.9284 -0.317382,-1.3251 -0.309449,-0.3967 -1.015625,-0.3967 -0.817261,0 -1.293335,0.4919 -0.476075,0.484 -0.476075,1.3251 l 0,5.1178 -2.30896,0 z"
         style="font-style:normal;font-variant:normal;font-weight:bold;font-stretch:normal;font-size:16.25px;font-family:'Swis721 BT';-inkscape-font-specification:'Swis721 BT Bold';letter-spacing:-0.99999988px;fill:#ffffff"
         id="path4145" />
      <path
         d="m 73.048035,1015.4408 2.301025,0 q -0.349121,1.3647 -1.412353,2.1423 -1.055298,0.7697 -2.578736,0.7697 -1.872558,0 -2.967529,-1.2537 -1.094971,-1.2616 -1.094971,-3.4118 0,-2.1186 1.079102,-3.3405 1.079101,-1.2219 2.95166,-1.2219 1.983642,0 3.062744,1.206 1.079102,1.1982 1.079102,3.4198 0,0.246 -0.0079,0.373 0,0.119 -0.01587,0.2301 l -5.760498,0 q 0.04761,1.0156 0.491943,1.5313 0.452271,0.5158 1.293335,0.5158 0.595093,0 0.975952,-0.2301 0.38086,-0.2381 0.603028,-0.73 z m -3.364258,-2.6025 3.395996,0 q -0.03174,-0.8728 -0.46814,-1.3251 -0.428466,-0.4602 -1.237793,-0.4602 -0.753784,0 -1.190185,0.4602 -0.428467,0.4602 -0.499878,1.3251 z"
         style="font-style:normal;font-variant:normal;font-weight:bold;font-stretch:normal;font-size:16.25px;font-family:'Swis721 BT';-inkscape-font-specification:'Swis721 BT Bold';letter-spacing:-0.99999988px;fill:#ffffff"
         id="path4147" />
      <path
         d="m 75.515442,1015.2504 2.301025,0 q 0.03174,0.6585 0.476075,0.9839 0.444335,0.3173 1.333007,0.3173 0.674439,0 1.039429,-0.2221 0.372925,-0.2301 0.372925,-0.6427 0,-0.5872 -1.380615,-0.8808 -0.563355,-0.119 -0.896607,-0.2063 -1.682129,-0.4284 -2.340698,-1.0156 -0.650635,-0.5872 -0.650635,-1.5869 0,-1.3251 0.952149,-2.0947 0.960083,-0.7776 2.594604,-0.7776 1.729736,0 2.713623,0.7696 0.991821,0.7697 1.055298,2.1662 l -2.245483,0 q -0.0238,-0.5475 -0.420533,-0.849 -0.388794,-0.3015 -1.087036,-0.3015 -0.658569,0 -0.983887,0.1983 -0.317382,0.1984 -0.317382,0.5951 0,0.5158 1.721801,0.9125 0.396729,0.087 0.626831,0.1428 1.721802,0.4047 2.348633,0.976 0.634766,0.5713 0.634766,1.6107 0,1.4679 -1.039429,2.2375 -1.031494,0.7697 -3.007202,0.7697 -1.785278,0 -2.792969,-0.8014 -1.00769,-0.8014 -1.00769,-2.2058 l 0,-0.095 z"
         style="font-style:normal;font-variant:normal;font-weight:bold;font-stretch:normal;font-size:16.25px;font-family:'Swis721 BT';-inkscape-font-specification:'Swis721 BT Bold';letter-spacing:-0.99999988px;fill:#ffffff"
         id="path4149" />
      <path
         d="m 83.402161,1015.2504 2.301025,0 q 0.03174,0.6585 0.476074,0.9839 0.444336,0.3173 1.333008,0.3173 0.674439,0 1.039429,-0.2221 0.372925,-0.2301 0.372925,-0.6427 0,-0.5872 -1.380616,-0.8808 -0.563354,-0.119 -0.896606,-0.2063 -1.682129,-0.4284 -2.340698,-1.0156 -0.650635,-0.5872 -0.650635,-1.5869 0,-1.3251 0.952148,-2.0947 0.960083,-0.7776 2.594605,-0.7776 1.729736,0 2.713623,0.7696 0.991821,0.7697 1.055298,2.1662 l -2.245484,0 q -0.0238,-0.5475 -0.420532,-0.849 -0.388794,-0.3015 -1.087036,-0.3015 -0.658569,0 -0.983887,0.1983 -0.317383,0.1984 -0.317383,0.5951 0,0.5158 1.721802,0.9125 0.396729,0.087 0.626831,0.1428 1.721802,0.4047 2.348633,0.976 0.634766,0.5713 0.634766,1.6107 0,1.4679 -1.039429,2.2375 -1.031494,0.7697 -3.007202,0.7697 -1.785278,0 -2.792969,-0.8014 -1.00769,-0.8014 -1.00769,-2.2058 l 0,-0.095 z"
         style="font-style:normal;font-variant:normal;font-weight:bold;font-stretch:normal;font-size:16.25px;font-family:'Swis721 BT';-inkscape-font-specification:'Swis721 BT Bold';letter-spacing:-0.99999988px;fill:#ffffff"
         id="path4151" />
    </g>
  </g>
</svg>
