<svg
   xmlns:dc="http://purl.org/dc/elements/1.1/"
   xmlns:cc="http://creativecommons.org/ns#"
   xmlns:rdf="http://www.w3.org/1999/02/22-rdf-syntax-ns#"
   xmlns:svg="http://www.w3.org/2000/svg"
   xmlns="http://www.w3.org/2000/svg"
   xmlns:sodipodi="http://sodipodi.sourceforge.net/DTD/sodipodi-0.dtd"
   xmlns:inkscape="http://www.inkscape.org/namespaces/inkscape"
   width="120"
   height="80"
   viewBox="0 0 120 80"
   id="svg2"
   version="1.1"
   inkscape:version="0.91 r13725"
   sodipodi:docname="Icon_AGOL_BuildingDevelopment_120x80px.svg">
  <defs
     id="defs4" />
  <sodipodi:namedview
     id="base"
     pagecolor="#ffffff"
     bordercolor="#666666"
     borderopacity="1.0"
     inkscape:pageopacity="0.0"
     inkscape:pageshadow="2"
     inkscape:zoom="5.6"
     inkscape:cx="72.442047"
     inkscape:cy="23.861028"
     inkscape:document-units="px"
     inkscape:current-layer="layer1"
     showgrid="false"
     units="px"
     inkscape:window-width="1806"
     inkscape:window-height="1057"
     inkscape:window-x="106"
     inkscape:window-y="-8"
     inkscape:window-maximized="1" />
  <metadata
     id="metadata7">
    <rdf:RDF>
      <cc:Work
         rdf:about="">
        <dc:format>image/svg+xml</dc:format>
        <dc:type
           rdf:resource="http://purl.org/dc/dcmitype/StillImage" />
        <dc:title />
      </cc:Work>
    </rdf:RDF>
  </metadata>
  <g
     inkscape:label="Layer 1"
     inkscape:groupmode="layer"
     id="layer1"
     transform="translate(0,-972.36216)">
    <rect
       style="opacity:1;fill:#c60c46;fill-opacity:1"
       id="rect4136-4-5-6-2-0-6-4-6-8-1"
       width="120"
       height="79.999916"
       x="0"
       y="972.36218" />
    <g
       id="text4873-0-59-0-00-3-4-1"
       style="font-style:normal;font-weight:normal;font-size:17.5px;line-height:125%;font-family:sans-serif;letter-spacing:0px;word-spacing:0px;fill:#ffffff;fill-opacity:1;stroke:none;stroke-width:1px;stroke-linecap:butt;stroke-linejoin:miter;stroke-opacity:1"
       transform="translate(11.535889,-0.3164899)">
      <path
         inkscape:connector-curvature="0"
         id="path4140"
         style="font-style:normal;font-variant:normal;font-weight:bold;font-stretch:normal;font-size:16.25px;font-family:'Swis721 BT';-inkscape-font-specification:'Swis721 BT Bold';letter-spacing:-0.99999988px;fill:#ffffff"
         d="m 8.347168,1014.4879 0,11.6876 -2.1899414,0 0,-1.1663 q -0.499878,0.7537 -1.126709,1.1108 -0.6188965,0.3491 -1.459961,0.3491 -1.5948486,0 -2.58666988,-1.2616 Q 0,1023.9459 0,1021.8988 q 0,-2.063 0.98388672,-3.3484 0.99182128,-1.2933 2.55493168,-1.2933 0.8331298,0 1.4837646,0.3491 0.6585693,0.3491 1.0870361,1.0156 l 0,-4.1339 2.2375489,0 z m -6.038208,7.3157 q 0,1.3092 0.4919433,1.9995 0.4919434,0.6824 1.4202881,0.6824 0.9204102,0 1.404419,-0.6824 0.4840087,-0.6824 0.4840087,-1.9995 0,-1.2219 -0.5078125,-1.8805 -0.5078125,-0.6665 -1.4282226,-0.6665 -0.8648682,0 -1.3647461,0.6824 -0.4998779,0.6744 -0.4998779,1.8646 z" />
      <path
         inkscape:connector-curvature="0"
         id="path4142"
         style="font-style:normal;font-variant:normal;font-weight:bold;font-stretch:normal;font-size:16.25px;font-family:'Swis721 BT';-inkscape-font-specification:'Swis721 BT Bold';letter-spacing:-0.99999988px;fill:#ffffff"
         d="m 14.734253,1023.5571 2.301025,0 q -0.349121,1.3648 -1.412353,2.1424 -1.055298,0.7696 -2.578736,0.7696 -1.872558,0 -2.967529,-1.2536 -1.0949705,-1.2616 -1.0949705,-3.4119 0,-2.1185 1.0791015,-3.3405 1.079102,-1.2219 2.95166,-1.2219 1.983643,0 3.062744,1.2061 1.079102,1.1981 1.079102,3.4198 0,0.2459 -0.0079,0.3729 0,0.119 -0.01587,0.2301 l -5.760498,0 q 0.04761,1.0156 0.491943,1.5314 0.452271,0.5157 1.293335,0.5157 0.595093,0 0.975953,-0.2301 0.380859,-0.238 0.603027,-0.73 z m -3.364258,-2.6025 3.395996,0 q -0.03174,-0.8728 -0.468139,-1.3251 -0.428467,-0.4602 -1.237793,-0.4602 -0.753785,0 -1.190186,0.4602 -0.428467,0.4602 -0.499878,1.3251 z" />
      <path
         inkscape:connector-curvature="0"
         id="path4144"
         style="font-style:normal;font-variant:normal;font-weight:bold;font-stretch:normal;font-size:16.25px;font-family:'Swis721 BT';-inkscape-font-specification:'Swis721 BT Bold';letter-spacing:-0.99999988px;fill:#ffffff"
         d="m 19.812134,1026.1755 -3.102417,-8.6248 2.554931,0 1.76941,6.1889 1.785278,-6.1889 2.435913,0 -3.086548,8.6248 -2.356567,0 z" />
      <path
         inkscape:connector-curvature="0"
         id="path4146"
         style="font-style:normal;font-variant:normal;font-weight:bold;font-stretch:normal;font-size:16.25px;font-family:'Swis721 BT';-inkscape-font-specification:'Swis721 BT Bold';letter-spacing:-0.99999988px;fill:#ffffff"
         d="m 30.602905,1023.5571 2.301026,0 q -0.349121,1.3648 -1.412354,2.1424 -1.055298,0.7696 -2.578735,0.7696 -1.872559,0 -2.96753,-1.2536 -1.09497,-1.2616 -1.09497,-3.4119 0,-2.1185 1.079101,-3.3405 1.079102,-1.2219 2.951661,-1.2219 1.983642,0 3.062744,1.2061 1.079101,1.1981 1.079101,3.4198 0,0.2459 -0.0079,0.3729 0,0.119 -0.01587,0.2301 l -5.760499,0 q 0.04761,1.0156 0.491944,1.5314 0.45227,0.5157 1.293335,0.5157 0.595093,0 0.975952,-0.2301 0.380859,-0.238 0.603027,-0.73 z m -3.364258,-2.6025 3.395997,0 q -0.03174,-0.8728 -0.46814,-1.3251 -0.428467,-0.4602 -1.237793,-0.4602 -0.753784,0 -1.190186,0.4602 -0.428466,0.4602 -0.499878,1.3251 z" />
      <path
         inkscape:connector-curvature="0"
         id="path4148"
         style="font-style:normal;font-variant:normal;font-weight:bold;font-stretch:normal;font-size:16.25px;font-family:'Swis721 BT';-inkscape-font-specification:'Swis721 BT Bold';letter-spacing:-0.99999988px;fill:#ffffff"
         d="m 33.633667,1026.1755 0,-11.6876 2.30896,0 0,11.6876 -2.30896,0 z" />
      <path
         inkscape:connector-curvature="0"
         id="path4150"
         style="font-style:normal;font-variant:normal;font-weight:bold;font-stretch:normal;font-size:16.25px;font-family:'Swis721 BT';-inkscape-font-specification:'Swis721 BT Bold';letter-spacing:-0.99999988px;fill:#ffffff"
         d="m 38.933716,1021.8512 q 0,1.2854 0.523681,1.9836 0.531617,0.6983 1.507569,0.6983 0.960083,0 1.483764,-0.6983 0.531617,-0.6982 0.531617,-1.9836 0,-1.2775 -0.523682,-1.9678 -0.523682,-0.6982 -1.491699,-0.6982 -0.975952,0 -1.507569,0.6982 -0.523681,0.6903 -0.523681,1.9678 z m -2.340698,0 q 0,-2.1503 1.166381,-3.3801 1.166382,-1.2299 3.205567,-1.2299 2.03125,0 3.197632,1.2299 1.174316,1.2298 1.174316,3.3801 0,2.1582 -1.174316,3.3881 -1.166382,1.2298 -3.197632,1.2298 -2.039185,0 -3.205567,-1.2298 -1.166381,-1.2299 -1.166381,-3.3881 z" />
      <path
         inkscape:connector-curvature="0"
         id="path4152"
         style="font-style:normal;font-variant:normal;font-weight:bold;font-stretch:normal;font-size:16.25px;font-family:'Swis721 BT';-inkscape-font-specification:'Swis721 BT Bold';letter-spacing:-0.99999988px;fill:#ffffff"
         d="m 51.993774,1021.9147 q 0,-1.3013 -0.491943,-1.9837 -0.491943,-0.6903 -1.428223,-0.6903 -0.92041,0 -1.404419,0.6824 -0.476074,0.6824 -0.476074,1.9916 0,1.2219 0.499878,1.8884 0.507813,0.6665 1.428223,0.6665 0.872803,0 1.37268,-0.6824 0.499878,-0.6823 0.499878,-1.8725 z m -6.046142,7.7203 0,-12.0843 2.197876,0 0,1.1663 q 0.499878,-0.7617 1.11084,-1.1108 0.618896,-0.3491 1.452026,-0.3491 1.594849,0 2.58667,1.2616 0.991821,1.2536 0.991821,3.3008 0,2.0709 -0.991821,3.3642 -0.991821,1.2854 -2.554932,1.2854 -0.825195,0 -1.47583,-0.3491 -0.6427,-0.3491 -1.071167,-1.0156 l 0,4.5306 -2.245483,0 z" />
      <path
         inkscape:connector-curvature="0"
         id="path4154"
         style="font-style:normal;font-variant:normal;font-weight:bold;font-stretch:normal;font-size:16.25px;font-family:'Swis721 BT';-inkscape-font-specification:'Swis721 BT Bold';letter-spacing:-0.99999988px;fill:#ffffff"
         d="m 54.865845,1026.1755 0,-8.6248 2.189941,0 0,0.9521 q 0.484009,-0.5951 1.079102,-0.8966 0.595092,-0.3015 1.317138,-0.3015 0.817261,0 1.396485,0.3094 0.579223,0.3015 1.00769,0.9601 0.452271,-0.6347 1.071167,-0.9521 0.618897,-0.3174 1.380615,-0.3174 1.30127,0 2.062989,0.7617 0.761718,0.7617 0.761718,2.0789 l 0,6.0302 -2.277221,0 0,-5.5542 q 0,-0.6268 -0.341187,-0.968 -0.333252,-0.3491 -0.936279,-0.3491 -0.674439,0 -1.071167,0.4443 -0.396729,0.4364 -0.396729,1.1982 l 0,5.2288 -2.253418,0 0,-5.5383 q 0,-0.6348 -0.333252,-0.9839 -0.325317,-0.3491 -0.92041,-0.3491 -0.674438,0 -1.071167,0.4443 -0.388794,0.4444 -0.388794,1.214 l 0,5.213 -2.277221,0 z" />
      <path
         inkscape:connector-curvature="0"
         id="path4156"
         style="font-style:normal;font-variant:normal;font-weight:bold;font-stretch:normal;font-size:16.25px;font-family:'Swis721 BT';-inkscape-font-specification:'Swis721 BT Bold';letter-spacing:-0.99999988px;fill:#ffffff"
         d="m 73.432495,1023.5571 2.301026,0 q -0.349122,1.3648 -1.412354,2.1424 -1.055298,0.7696 -2.578735,0.7696 -1.872559,0 -2.96753,-1.2536 -1.09497,-1.2616 -1.09497,-3.4119 0,-2.1185 1.079101,-3.3405 1.079102,-1.2219 2.95166,-1.2219 1.983643,0 3.062744,1.2061 1.079102,1.1981 1.079102,3.4198 0,0.2459 -0.0079,0.3729 0,0.119 -0.01587,0.2301 l -5.760498,0 q 0.04761,1.0156 0.491944,1.5314 0.45227,0.5157 1.293335,0.5157 0.595092,0 0.975952,-0.2301 0.380859,-0.238 0.603027,-0.73 z m -3.364258,-2.6025 3.395996,0 q -0.03174,-0.8728 -0.468139,-1.3251 -0.428467,-0.4602 -1.237793,-0.4602 -0.753784,0 -1.190186,0.4602 -0.428467,0.4602 -0.499878,1.3251 z" />
      <path
         inkscape:connector-curvature="0"
         id="path4158"
         style="font-style:normal;font-variant:normal;font-weight:bold;font-stretch:normal;font-size:16.25px;font-family:'Swis721 BT';-inkscape-font-specification:'Swis721 BT Bold';letter-spacing:-0.99999988px;fill:#ffffff"
         d="m 76.383911,1026.1755 0,-8.6248 2.261353,0 0,1.0235 q 0.484008,-0.6268 1.142578,-0.9363 0.658569,-0.3173 1.467895,-0.3173 1.428223,0 2.1344,0.7458 0.714111,0.7379 0.714111,2.2296 l 0,5.8795 -2.30896,0 0,-5.213 q 0,-0.9283 -0.317383,-1.325 -0.309448,-0.3968 -1.015625,-0.3968 -0.81726,0 -1.293335,0.492 -0.476074,0.484 -0.476074,1.325 l 0,5.1178 -2.30896,0 z" />
      <path
         inkscape:connector-curvature="0"
         id="path4160"
         style="font-style:normal;font-variant:normal;font-weight:bold;font-stretch:normal;font-size:16.25px;font-family:'Swis721 BT';-inkscape-font-specification:'Swis721 BT Bold';letter-spacing:-0.99999988px;fill:#ffffff"
         d="m 88.928223,1026.239 q -0.317383,0.01 -0.761719,0.024 -0.436401,0.024 -0.55542,0.024 -1.325073,0 -1.817017,-0.4919 -0.484008,-0.4999 -0.484008,-1.9599 l 0,-4.6655 -1.142579,0 0,-1.6186 1.142579,0 0,-2.3566 2.285156,0 0,2.3566 1.333008,0 0,1.6186 -1.333008,0 0,4.7766 q 0,0.3412 0.150757,0.4523 0.150757,0.1031 0.618896,0.1031 l 0.563355,0 0,1.7377 z" />
    </g>
    <path
       d="m 13.836914,1004.9828 2.848511,0 q 1.007691,0 1.467896,-0.365 0.460205,-0.365 0.460205,-1.1505 0,-0.8172 -0.452271,-1.1743 -0.45227,-0.365 -1.491699,-0.365 l -2.832642,0 0,3.0548 z m 0,-5.05429 2.745362,0 q 0.888672,0 1.301269,-0.30152 0.412598,-0.30945 0.412598,-0.96802 0,-0.6427 -0.404663,-0.92834 -0.396729,-0.29358 -1.325073,-0.29358 l -2.729493,0 0,2.49146 z m -2.301025,7.16489 0,-11.6876 5.506592,0 q 1.793213,0 2.729492,0.76172 0.944214,0.75378 0.944214,2.19787 0,0.88868 -0.349121,1.48372 -0.349121,0.59509 -1.047364,0.92049 0.904541,0.3649 1.348877,1.0553 0.452271,0.6823 0.452271,1.7059 0,1.7059 -1.11084,2.6343 -1.11084,0.9283 -3.150024,0.9283 l -5.324097,0 z"
       style="font-style:normal;font-variant:normal;font-weight:bold;font-stretch:normal;font-size:16.25px;line-height:125%;font-family:'Swis721 BT';-inkscape-font-specification:'Swis721 BT Bold';letter-spacing:-0.99999988px;word-spacing:0px;fill:#ffffff;fill-opacity:1;stroke:none;stroke-width:1px;stroke-linecap:butt;stroke-linejoin:miter;stroke-opacity:1"
       id="path4163"
       inkscape:connector-curvature="0" />
    <path
       d="m 29.483643,998.46854 0,8.62486 -2.261353,0 0,-1.0235 q -0.491943,0.6268 -1.150512,0.9442 -0.650635,0.3094 -1.467896,0.3094 -1.420288,0 -2.134399,-0.7458 -0.706177,-0.7459 -0.706177,-2.2296 l 0,-5.87956 2.30896,0 0,5.21296 q 0,0.9205 0.309448,1.3172 0.309448,0.3888 1.02356,0.3888 0.809326,0 1.2854,-0.484 0.484009,-0.492 0.484009,-1.333 l 0,-5.10196 2.30896,0 z"
       style="font-style:normal;font-variant:normal;font-weight:bold;font-stretch:normal;font-size:16.25px;line-height:125%;font-family:'Swis721 BT';-inkscape-font-specification:'Swis721 BT Bold';letter-spacing:-0.99999988px;word-spacing:0px;fill:#ffffff;fill-opacity:1;stroke:none;stroke-width:1px;stroke-linecap:butt;stroke-linejoin:miter;stroke-opacity:1"
       id="path4165"
       inkscape:connector-curvature="0" />
    <path
       d="m 30.554566,997.50846 0,-2.10266 2.30896,0 0,2.10266 -2.30896,0 z m 0,9.58494 0,-8.62486 2.30896,0 0,8.62486 -2.30896,0 z"
       style="font-style:normal;font-variant:normal;font-weight:bold;font-stretch:normal;font-size:16.25px;line-height:125%;font-family:'Swis721 BT';-inkscape-font-specification:'Swis721 BT Bold';letter-spacing:-0.99999988px;word-spacing:0px;fill:#ffffff;fill-opacity:1;stroke:none;stroke-width:1px;stroke-linecap:butt;stroke-linejoin:miter;stroke-opacity:1"
       id="path4167"
       inkscape:connector-curvature="0" />
    <path
       d="m 33.997925,1007.0934 0,-11.6876 2.30896,0 0,11.6876 -2.30896,0 z"
       style="font-style:normal;font-variant:normal;font-weight:bold;font-stretch:normal;font-size:16.25px;line-height:125%;font-family:'Swis721 BT';-inkscape-font-specification:'Swis721 BT Bold';letter-spacing:-0.99999988px;word-spacing:0px;fill:#ffffff;fill-opacity:1;stroke:none;stroke-width:1px;stroke-linecap:butt;stroke-linejoin:miter;stroke-opacity:1"
       id="path4169"
       inkscape:connector-curvature="0" />
    <path
       d="m 45.320313,995.4058 0,11.6876 -2.189942,0 0,-1.1664 q -0.499878,0.7538 -1.126709,1.1109 -0.618896,0.3491 -1.459961,0.3491 -1.594848,0 -2.586669,-1.2616 -0.983887,-1.2616 -0.983887,-3.3087 0,-2.063 0.983887,-3.3484 0.991821,-1.29333 2.554931,-1.29333 0.83313,0 1.483765,0.34912 0.658569,0.34912 1.087036,1.01562 l 0,-4.13391 2.237549,0 z m -6.038208,7.3157 q 0,1.3092 0.491943,1.9995 0.491944,0.6823 1.420288,0.6823 0.92041,0 1.404419,-0.6823 0.484009,-0.6824 0.484009,-1.9995 0,-1.222 -0.507813,-1.8805 -0.507812,-0.6665 -1.428222,-0.6665 -0.864868,0 -1.364746,0.6823 -0.499878,0.6745 -0.499878,1.8647 z"
       style="font-style:normal;font-variant:normal;font-weight:bold;font-stretch:normal;font-size:16.25px;line-height:125%;font-family:'Swis721 BT';-inkscape-font-specification:'Swis721 BT Bold';letter-spacing:-0.99999988px;word-spacing:0px;fill:#ffffff;fill-opacity:1;stroke:none;stroke-width:1px;stroke-linecap:butt;stroke-linejoin:miter;stroke-opacity:1"
       id="path4171"
       inkscape:connector-curvature="0" />
    <path
       d="m 46.438843,997.50846 0,-2.10266 2.30896,0 0,2.10266 -2.30896,0 z m 0,9.58494 0,-8.62486 2.30896,0 0,8.62486 -2.30896,0 z"
       style="font-style:normal;font-variant:normal;font-weight:bold;font-stretch:normal;font-size:16.25px;line-height:125%;font-family:'Swis721 BT';-inkscape-font-specification:'Swis721 BT Bold';letter-spacing:-0.99999988px;word-spacing:0px;fill:#ffffff;fill-opacity:1;stroke:none;stroke-width:1px;stroke-linecap:butt;stroke-linejoin:miter;stroke-opacity:1"
       id="path4173"
       inkscape:connector-curvature="0" />
    <path
       d="m 49.802857,1007.0934 0,-8.62486 2.261352,0 0,1.02356 q 0.484009,-0.62683 1.142578,-0.93628 0.65857,-0.31738 1.467896,-0.31738 1.428223,0 2.134399,0.74585 0.714112,0.73792 0.714112,2.22961 l 0,5.8795 -2.30896,0 0,-5.213 q 0,-0.9283 -0.317383,-1.3251 -0.309448,-0.3967 -1.015625,-0.3967 -0.817261,0 -1.293335,0.4919 -0.476074,0.484 -0.476074,1.3251 l 0,5.1178 -2.30896,0 z"
       style="font-style:normal;font-variant:normal;font-weight:bold;font-stretch:normal;font-size:16.25px;line-height:125%;font-family:'Swis721 BT';-inkscape-font-specification:'Swis721 BT Bold';letter-spacing:-0.99999988px;word-spacing:0px;fill:#ffffff;fill-opacity:1;stroke:none;stroke-width:1px;stroke-linecap:butt;stroke-linejoin:miter;stroke-opacity:1"
       id="path4175"
       inkscape:connector-curvature="0" />
    <path
       d="m 60.403199,1002.6421 q 0,1.214 0.484008,1.8646 0.491944,0.6507 1.396485,0.6507 0.912475,0 1.38855,-0.6507 0.484008,-0.6506 0.484008,-1.8963 0,-1.1823 -0.499878,-1.825 -0.491943,-0.6506 -1.404419,-0.6506 -0.880737,0 -1.364746,0.6586 -0.484008,0.6585 -0.484008,1.8487 z m -2.086792,5.2844 2.523193,-0.01 q 0.111084,0.4364 0.45227,0.6506 0.349122,0.2143 0.928345,0.2143 1.079102,0 1.507569,-0.4602 0.428466,-0.4523 0.428466,-1.6822 l 0,-0.7696 q -0.36499,0.6268 -0.952148,0.9283 -0.579224,0.2936 -1.452026,0.2936 -1.674195,0 -2.681885,-1.1902 -1.007691,-1.1981 -1.007691,-3.1817 0,-2.0948 0.983887,-3.32461 0.991821,-1.23779 2.666016,-1.23779 0.872802,0 1.483764,0.33325 0.618897,0.33325 1.007691,1.01562 l 0,-1.03943 2.189941,0 0,8.05356 q 0,1.3568 -0.253906,2.0709 -0.253906,0.7142 -0.864868,1.1982 -0.523682,0.4046 -1.333008,0.6109 -0.801392,0.2143 -1.832886,0.2143 -1.729736,0 -2.721557,-0.7062 -0.991822,-0.7062 -1.071167,-1.9837 z"
       style="font-style:normal;font-variant:normal;font-weight:bold;font-stretch:normal;font-size:16.25px;line-height:125%;font-family:'Swis721 BT';-inkscape-font-specification:'Swis721 BT Bold';letter-spacing:-0.99999988px;word-spacing:0px;fill:#ffffff;fill-opacity:1;stroke:none;stroke-width:1px;stroke-linecap:butt;stroke-linejoin:miter;stroke-opacity:1"
       id="path4177"
       inkscape:connector-curvature="0" />
    <path
       d="m 75.994141,1006.0222 q -0.436401,0.6745 -1.142578,1.0315 -0.706177,0.3492 -1.642456,0.3492 -1.253662,0 -1.936035,-0.7142 -0.674439,-0.7141 -0.674439,-2.0312 0,-1.2219 0.674439,-1.8646 0.682373,-0.6427 2.245483,-0.8808 0.357056,-0.056 0.936279,-0.1269 1.467896,-0.1904 1.467896,-0.849 0,-0.5237 -0.325318,-0.7459 -0.325317,-0.23009 -1.087036,-0.23009 -0.698242,0 -1.071167,0.27769 -0.372924,0.2778 -0.372924,0.7935 l 0,0.127 -2.158204,0 0,-0.1587 q 0,-1.3251 0.93628,-2.07889 0.936279,-0.76171 2.58667,-0.76171 1.809082,0 2.769165,0.62683 0.968017,0.62683 0.968017,1.80907 l 0,4.9036 q 0,0.5395 0.111084,0.8093 0.111084,0.2618 0.372925,0.3967 l 0,0.3888 -2.404175,0 q -0.119018,-0.2222 -0.182495,-0.4919 -0.06348,-0.2698 -0.07141,-0.5793 z m -0.03967,-3.1738 q -0.563354,0.2619 -1.301269,0.4205 -0.729981,0.1587 -0.753785,0.1667 -0.610962,0.1745 -0.856933,0.4364 -0.238037,0.2618 -0.238037,0.722 0,0.4761 0.309448,0.7617 0.309448,0.2778 0.83313,0.2778 0.936279,0 1.467895,-0.5237 0.539551,-0.5316 0.539551,-1.4441 l 0,-0.8173 z"
       style="font-style:normal;font-variant:normal;font-weight:bold;font-stretch:normal;font-size:16.25px;line-height:125%;font-family:'Swis721 BT';-inkscape-font-specification:'Swis721 BT Bold';letter-spacing:-0.99999988px;word-spacing:0px;fill:#ffffff;fill-opacity:1;stroke:none;stroke-width:1px;stroke-linecap:butt;stroke-linejoin:miter;stroke-opacity:1"
       id="path4179"
       inkscape:connector-curvature="0" />
    <path
       d="m 79.191529,1007.0934 0,-8.62486 2.261352,0 0,1.02356 q 0.484009,-0.62683 1.142578,-0.93628 0.65857,-0.31738 1.467896,-0.31738 1.428222,0 2.134399,0.74585 0.714112,0.73792 0.714112,2.22961 l 0,5.8795 -2.30896,0 0,-5.213 q 0,-0.9283 -0.317383,-1.3251 -0.309448,-0.3967 -1.015625,-0.3967 -0.817261,0 -1.293335,0.4919 -0.476074,0.484 -0.476074,1.3251 l 0,5.1178 -2.30896,0 z"
       style="font-style:normal;font-variant:normal;font-weight:bold;font-stretch:normal;font-size:16.25px;line-height:125%;font-family:'Swis721 BT';-inkscape-font-specification:'Swis721 BT Bold';letter-spacing:-0.99999988px;word-spacing:0px;fill:#ffffff;fill-opacity:1;stroke:none;stroke-width:1px;stroke-linecap:butt;stroke-linejoin:miter;stroke-opacity:1"
       id="path4181"
       inkscape:connector-curvature="0" />
    <path
       d="m 95.830078,995.4058 0,11.6876 -2.189941,0 0,-1.1664 q -0.499878,0.7538 -1.126709,1.1109 -0.618896,0.3491 -1.459961,0.3491 -1.594849,0 -2.58667,-1.2616 -0.983887,-1.2616 -0.983887,-3.3087 0,-2.063 0.983887,-3.3484 0.991821,-1.29333 2.554932,-1.29333 0.83313,0 1.483764,0.34912 0.65857,0.34912 1.087037,1.01562 l 0,-4.13391 2.237548,0 z m -6.038208,7.3157 q 0,1.3092 0.491944,1.9995 0.491943,0.6823 1.420288,0.6823 0.92041,0 1.404419,-0.6823 0.484009,-0.6824 0.484009,-1.9995 0,-1.222 -0.507813,-1.8805 -0.507812,-0.6665 -1.428223,-0.6665 -0.864868,0 -1.364746,0.6823 -0.499878,0.6745 -0.499878,1.8647 z"
       style="font-style:normal;font-variant:normal;font-weight:bold;font-stretch:normal;font-size:16.25px;line-height:125%;font-family:'Swis721 BT';-inkscape-font-specification:'Swis721 BT Bold';letter-spacing:-0.99999988px;word-spacing:0px;fill:#ffffff;fill-opacity:1;stroke:none;stroke-width:1px;stroke-linecap:butt;stroke-linejoin:miter;stroke-opacity:1"
       id="path4183"
       inkscape:connector-curvature="0" />
  </g>
</svg>
