<?xml version="1.0" encoding="UTF-8" standalone="no"?>
<!-- Created with Inkscape (http://www.inkscape.org/) -->

<svg
   xmlns:dc="http://purl.org/dc/elements/1.1/"
   xmlns:cc="http://creativecommons.org/ns#"
   xmlns:rdf="http://www.w3.org/1999/02/22-rdf-syntax-ns#"
   xmlns:svg="http://www.w3.org/2000/svg"
   xmlns="http://www.w3.org/2000/svg"
   xmlns:sodipodi="http://sodipodi.sourceforge.net/DTD/sodipodi-0.dtd"
   xmlns:inkscape="http://www.inkscape.org/namespaces/inkscape"
   width="100"
   height="100"
   viewBox="0 0 99.999997 100"
   id="svg2"
   version="1.1"
   inkscape:version="0.91 r13725"
   sodipodi:docname="LOGO_SydneyMaps_Red_100x100px.svg">
  <defs
     id="defs4" />
  <sodipodi:namedview
     id="base"
     pagecolor="#ffffff"
     bordercolor="#666666"
     borderopacity="1.0"
     inkscape:pageopacity="0.0"
     inkscape:pageshadow="2"
     inkscape:zoom="2.8"
     inkscape:cx="-11.608029"
     inkscape:cy="41.116408"
     inkscape:document-units="px"
     inkscape:current-layer="layer1"
     showgrid="false"
     units="px"
     inkscape:window-width="1806"
     inkscape:window-height="1057"
     inkscape:window-x="106"
     inkscape:window-y="-8"
     inkscape:window-maximized="1" />
  <metadata
     id="metadata7">
    <rdf:RDF>
      <cc:Work
         rdf:about="">
        <dc:format>image/svg+xml</dc:format>
        <dc:type
           rdf:resource="http://purl.org/dc/dcmitype/StillImage" />
        <dc:title />
      </cc:Work>
    </rdf:RDF>
  </metadata>
  <g
     inkscape:label="Layer 1"
     inkscape:groupmode="layer"
     id="layer1"
     transform="translate(0,-952.36218)">
    <circle
       style="opacity:1;fill:#fa4c06;fill-opacity:1"
       id="path4136-6-2-8"
       cx="50"
       cy="1002.3622"
       r="50"
       inkscape:export-xdpi="200"
       inkscape:export-ydpi="200" />
    <g
       id="g4152">
      <g
         id="text4647-7-3-4-2"
         style="font-style:normal;font-weight:normal;font-size:15.625px;line-height:125%;font-family:sans-serif;letter-spacing:-1.25px;word-spacing:0px;fill:#ffffff;fill-opacity:1;stroke:none;stroke-width:1px;stroke-linecap:butt;stroke-linejoin:miter;stroke-opacity:1"
         transform="translate(-156.60832,602.59474)">
        <path
           id="path4470"
           style="font-style:normal;font-variant:normal;font-weight:normal;font-stretch:normal;font-size:16.25px;font-family:'Arial Rounded MT Bold';-inkscape-font-specification:'Arial Rounded MT Bold, ';letter-spacing:-1.25px;fill:#ffffff;fill-opacity:1"
           d="m 186.38982,403.71136 q 0,1.0553 -0.54749,1.89637 -0.53955,0.84106 -1.58691,1.31714 -1.04737,0.47607 -2.48352,0.47607 -1.72181,0 -2.84058,-0.65063 -0.79346,-0.46814 -1.29333,-1.24573 -0.49195,-0.78552 -0.49195,-1.52344 0,-0.42847 0.29358,-0.72998 0.30151,-0.30945 0.76172,-0.30945 0.37292,0 0.62683,0.23804 0.26184,0.23804 0.44434,0.70618 0.22216,0.55542 0.47607,0.92834 0.26184,0.37292 0.72998,0.6189 0.46814,0.23803 1.22986,0.23803 1.04736,0 1.698,-0.48401 0.65857,-0.49194 0.65857,-1.22192 0,-0.57922 -0.35706,-0.93628 -0.34912,-0.36499 -0.91247,-0.55542 -0.55542,-0.19043 -1.4917,-0.40466 -1.25367,-0.29358 -2.10266,-0.68237 -0.84107,-0.39673 -1.34095,-1.07117 -0.49194,-0.68237 -0.49194,-1.69006 0,-0.96009 0.52368,-1.70594 0.52368,-0.74585 1.5155,-1.14258 0.99183,-0.40466 2.33277,-0.40466 1.07117,0 1.84875,0.26978 0.78553,0.26184 1.30127,0.70617 0.51575,0.4364 0.75379,0.92041 0.23803,0.48401 0.23803,0.94422 0,0.42053 -0.30151,0.76172 -0.29358,0.33325 -0.73791,0.33325 -0.40467,0 -0.6189,-0.19837 -0.2063,-0.20629 -0.45227,-0.6665 -0.31738,-0.65857 -0.76172,-1.02356 -0.44434,-0.37292 -1.42822,-0.37292 -0.91248,0 -1.47583,0.40466 -0.55542,0.39673 -0.55542,0.96008 0,0.34912 0.19043,0.60303 0.19043,0.25391 0.52368,0.4364 0.33325,0.1825 0.67444,0.28565 0.34118,0.10314 1.12671,0.30151 0.98388,0.2301 1.77734,0.50781 0.80139,0.27771 1.35681,0.67444 0.56336,0.39673 0.8728,1.00769 0.31739,0.60303 0.31739,1.48376 z"
           inkscape:connector-curvature="0" />
        <path
           id="path4472"
           style="font-style:normal;font-variant:normal;font-weight:normal;font-stretch:normal;font-size:16.25px;font-family:'Arial Rounded MT Bold';-inkscape-font-specification:'Arial Rounded MT Bold, ';letter-spacing:-1.25px;fill:#ffffff;fill-opacity:1"
           d="m 189.7498,405.96478 0,-3.68957 -2.84057,-4.40369 q -0.37293,-0.59509 -0.53162,-0.92834 -0.15076,-0.33326 -0.15076,-0.57923 0,-0.40466 0.30945,-0.69824 0.31738,-0.29358 0.77759,-0.29358 0.48401,0 0.72998,0.27771 0.25391,0.26978 0.75378,1.08704 l 2.17408,3.53088 2.19787,-3.53088 q 0.19837,-0.32532 0.33325,-0.54749 0.13489,-0.22217 0.29358,-0.4126 0.16663,-0.19836 0.36499,-0.30151 0.19837,-0.10315 0.48401,-0.10315 0.44434,0 0.73792,0.29358 0.30151,0.28564 0.30151,0.6665 0,0.30945 -0.15076,0.6189 -0.15075,0.30945 -0.51574,0.85693 l -2.91199,4.46717 0,3.68957 q 0,0.72205 -0.33325,1.0791 -0.33325,0.35706 -0.849,0.35706 -0.52368,0 -0.849,-0.34912 -0.32532,-0.35706 -0.32532,-1.08704 z"
           inkscape:connector-curvature="0" />
        <path
           id="path4474"
           style="font-style:normal;font-variant:normal;font-weight:normal;font-stretch:normal;font-size:16.25px;font-family:'Arial Rounded MT Bold';-inkscape-font-specification:'Arial Rounded MT Bold, ';letter-spacing:-1.25px;fill:#ffffff;fill-opacity:1"
           d="m 197.52141,395.5705 3.07068,0 q 1.19812,0 2.05505,0.22216 0.85693,0.22217 1.55518,0.83313 1.81701,1.55518 1.81701,4.72901 0,1.04736 -0.18249,1.91223 -0.1825,0.86487 -0.56336,1.56311 -0.38086,0.69031 -0.97595,1.23779 -0.46814,0.42053 -1.02356,0.67444 -0.55542,0.25391 -1.19812,0.35706 -0.63476,0.10315 -1.43616,0.10315 l -3.07067,0 q -0.6427,0 -0.96802,-0.19043 -0.32532,-0.19837 -0.42847,-0.54749 -0.0952,-0.35706 -0.0952,-0.92041 l 0,-8.52966 q 0,-0.76172 0.34118,-1.10291 0.34119,-0.34118 1.10291,-0.34118 z m 0.91247,1.86462 0,7.8949 1.78528,0 q 0.58716,0 0.92041,-0.0317 0.33325,-0.0317 0.69031,-0.15869 0.35706,-0.12696 0.6189,-0.35706 1.18225,-0.99975 1.18225,-3.4436 0,-1.7218 -0.52368,-2.57874 -0.51575,-0.85693 -1.27747,-1.08703 -0.76172,-0.23804 -1.84082,-0.23804 l -1.55518,0 z"
           inkscape:connector-curvature="0" />
        <path
           id="path4476"
           style="font-style:normal;font-variant:normal;font-weight:normal;font-stretch:normal;font-size:16.25px;font-family:'Arial Rounded MT Bold';-inkscape-font-specification:'Arial Rounded MT Bold, ';letter-spacing:-1.25px;fill:#ffffff;fill-opacity:1"
           d="m 209.91093,396.78448 4.53064,6.85547 0,-6.91894 q 0,-0.67444 0.28565,-1.00769 0.29358,-0.34119 0.78552,-0.34119 0.50781,0 0.80139,0.34119 0.29358,0.33325 0.29358,1.00769 l 0,9.14856 q 0,1.53137 -1.26953,1.53137 -0.31738,0 -0.57129,-0.0952 -0.2539,-0.0873 -0.47607,-0.28565 -0.22217,-0.19836 -0.4126,-0.4602 -0.19043,-0.26978 -0.38086,-0.54749 l -4.41956,-6.77612 0,6.81579 q 0,0.66651 -0.30944,1.00769 -0.30945,0.34119 -0.79346,0.34119 -0.49988,0 -0.80139,-0.34119 -0.30152,-0.34912 -0.30152,-1.00769 l 0,-8.974 q 0,-0.57129 0.12696,-0.8966 0.15075,-0.35706 0.49988,-0.57923 0.34912,-0.2301 0.75378,-0.2301 0.31738,0 0.53955,0.10315 0.2301,0.10315 0.39673,0.27771 0.17456,0.17456 0.34912,0.45227 0.18249,0.27771 0.37292,0.57922 z"
           inkscape:connector-curvature="0" />
        <path
           id="path4478"
           style="font-style:normal;font-variant:normal;font-weight:normal;font-stretch:normal;font-size:16.25px;font-family:'Arial Rounded MT Bold';-inkscape-font-specification:'Arial Rounded MT Bold, ';letter-spacing:-1.25px;fill:#ffffff;fill-opacity:1"
           d="m 225.60124,397.38751 -5.30823,0 0,2.85645 4.8877,0 q 0.53955,0 0.80139,0.24597 0.26978,0.23804 0.26978,0.63476 0,0.39673 -0.26184,0.65064 -0.26184,0.24597 -0.80933,0.24597 l -4.8877,0 0,3.30872 5.49073,0 q 0.55542,0 0.83313,0.26184 0.28564,0.2539 0.28564,0.68237 0,0.4126 -0.28564,0.67444 -0.27771,0.25391 -0.83313,0.25391 l -6.4032,0 q -0.76965,0 -1.11084,-0.34119 -0.33325,-0.34119 -0.33325,-1.10291 l 0,-8.74389 q 0,-0.50782 0.15075,-0.8252 0.15076,-0.32532 0.46814,-0.46814 0.32532,-0.15075 0.8252,-0.15075 l 6.2207,0 q 0.56336,0 0.83313,0.2539 0.27771,0.24597 0.27771,0.65064 0,0.41259 -0.27771,0.6665 -0.26977,0.24597 -0.83313,0.24597 z"
           inkscape:connector-curvature="0" />
        <path
           id="path4480"
           style="font-style:normal;font-variant:normal;font-weight:normal;font-stretch:normal;font-size:16.25px;font-family:'Arial Rounded MT Bold';-inkscape-font-specification:'Arial Rounded MT Bold, ';letter-spacing:-1.25px;fill:#ffffff;fill-opacity:1"
           d="m 230.13554,405.96478 0,-3.68957 -2.84057,-4.40369 q -0.37293,-0.59509 -0.53162,-0.92834 -0.15076,-0.33326 -0.15076,-0.57923 0,-0.40466 0.30945,-0.69824 0.31739,-0.29358 0.77759,-0.29358 0.48401,0 0.72998,0.27771 0.25391,0.26978 0.75379,1.08704 l 2.17407,3.53088 2.19787,-3.53088 q 0.19837,-0.32532 0.33326,-0.54749 0.13488,-0.22217 0.29357,-0.4126 0.16663,-0.19836 0.36499,-0.30151 0.19837,-0.10315 0.48401,-0.10315 0.44434,0 0.73792,0.29358 0.30151,0.28564 0.30151,0.6665 0,0.30945 -0.15075,0.6189 -0.15076,0.30945 -0.51575,0.85693 l -2.91199,4.46717 0,3.68957 q 0,0.72205 -0.33325,1.0791 -0.33325,0.35706 -0.849,0.35706 -0.52368,0 -0.849,-0.34912 -0.32532,-0.35706 -0.32532,-1.08704 z"
           inkscape:connector-curvature="0" />
      </g>
      <g
         id="text4647-6-6-6-6"
         style="font-style:normal;font-weight:normal;font-size:15.625px;line-height:125%;font-family:sans-serif;letter-spacing:-1.25px;word-spacing:0px;fill:#ffffff;fill-opacity:1;stroke:none;stroke-width:1px;stroke-linecap:butt;stroke-linejoin:miter;stroke-opacity:1"
         transform="translate(-156.60832,600.62192)">
        <path
           id="path4483"
           style="font-style:normal;font-variant:normal;font-weight:normal;font-stretch:normal;font-size:16.25px;font-family:'Arial Rounded MT Bold';-inkscape-font-specification:'Arial Rounded MT Bold, ';letter-spacing:-1.25px;fill:#ffffff;fill-opacity:1"
           d="m 181.1768,420.61829 -1.86462,-7.41089 0,8.02978 q 0,0.66651 -0.30151,0.99976 -0.29358,0.33325 -0.78553,0.33325 -0.47607,0 -0.77758,-0.32532 -0.30152,-0.33325 -0.30152,-1.00769 l 0,-9.2041 q 0,-0.76172 0.39673,-1.02356 0.39673,-0.26977 1.07117,-0.26977 l 0.72998,0 q 0.65857,0 0.95215,0.11901 0.30151,0.11902 0.44433,0.42847 0.14282,0.30945 0.32532,1.00769 l 1.69006,6.37146 1.69007,-6.37146 q 0.18249,-0.69824 0.32531,-1.00769 0.14283,-0.30945 0.43641,-0.42847 0.30151,-0.11901 0.96008,-0.11901 l 0.72998,0 q 0.67444,0 1.07117,0.26977 0.39672,0.26184 0.39672,1.02356 l 0,9.2041 q 0,0.66651 -0.30151,0.99976 -0.29358,0.33325 -0.79346,0.33325 -0.46814,0 -0.76965,-0.33325 -0.30151,-0.33325 -0.30151,-0.99976 l 0,-8.02978 -1.86463,7.41089 q -0.18249,0.72204 -0.30151,1.06323 -0.11109,0.33325 -0.42053,0.61096 -0.30945,0.27771 -0.85694,0.27771 -0.41259,0 -0.69824,-0.18249 -0.28564,-0.17457 -0.44434,-0.45228 -0.15869,-0.27771 -0.2539,-0.61096 -0.0873,-0.34118 -0.1825,-0.70617 z"
           inkscape:connector-curvature="0" />
        <path
           id="path4485"
           style="font-style:normal;font-variant:normal;font-weight:normal;font-stretch:normal;font-size:16.25px;font-family:'Arial Rounded MT Bold';-inkscape-font-specification:'Arial Rounded MT Bold, ';letter-spacing:-1.25px;fill:#ffffff;fill-opacity:1"
           d="m 196.99406,421.05469 -0.55542,-1.45996 -4.729,0 -0.55542,1.4917 q -0.32532,0.8728 -0.55542,1.18225 -0.2301,0.30151 -0.75378,0.30151 -0.44434,0 -0.78553,-0.32532 -0.34118,-0.32531 -0.34118,-0.73791 0,-0.23804 0.0793,-0.49195 0.0794,-0.2539 0.26184,-0.70617 l 2.97547,-7.55371 q 0.12695,-0.32532 0.30151,-0.77759 0.1825,-0.46021 0.38086,-0.76172 0.2063,-0.30151 0.53162,-0.48401 0.33325,-0.19043 0.81726,-0.19043 0.49194,0 0.81726,0.19043 0.33325,0.1825 0.53161,0.47608 0.2063,0.29357 0.34119,0.63476 0.14282,0.33325 0.35706,0.89661 l 3.03894,7.5061 q 0.35705,0.85693 0.35705,1.24573 0,0.40466 -0.34118,0.74585 -0.33326,0.33325 -0.80933,0.33325 -0.27771,0 -0.47607,-0.10315 -0.19837,-0.0952 -0.33326,-0.26184 -0.13488,-0.17456 -0.29357,-0.52368 -0.15076,-0.35706 -0.26185,-0.62683 z m -4.66552,-3.22937 3.47534,0 -1.75354,-4.80042 -1.7218,4.80042 z"
           inkscape:connector-curvature="0" />
        <path
           id="path4487"
           style="font-style:normal;font-variant:normal;font-weight:normal;font-stretch:normal;font-size:16.25px;font-family:'Arial Rounded MT Bold';-inkscape-font-specification:'Arial Rounded MT Bold, ';letter-spacing:-1.25px;fill:#ffffff;fill-opacity:1"
           d="m 204.4959,417.84119 -2.15821,0 0,3.29284 q 0,0.70618 -0.33325,1.07117 -0.33325,0.36499 -0.84106,0.36499 -0.53162,0 -0.85694,-0.35706 -0.32532,-0.36499 -0.32532,-1.06323 l 0,-8.96606 q 0,-0.77759 0.35706,-1.11084 0.35706,-0.33325 1.13464,-0.33325 l 3.02308,0 q 1.34094,0 2.06298,0.20629 0.71411,0.19837 1.22986,0.65857 0.52368,0.46021 0.79346,1.12671 0.26977,0.66651 0.26977,1.49964 0,1.77734 -1.09497,2.69775 -1.09497,0.91248 -3.2611,0.91248 z m -0.57129,-5.33203 -1.58692,0 0,3.55468 1.58692,0 q 0.83313,0 1.38855,-0.17456 0.56335,-0.17456 0.85693,-0.57129 0.29358,-0.39673 0.29358,-1.03943 0,-0.76965 -0.45227,-1.25366 -0.50781,-0.51574 -2.08679,-0.51574 z"
           inkscape:connector-curvature="0" />
        <path
           id="path4489"
           style="font-style:normal;font-variant:normal;font-weight:normal;font-stretch:normal;font-size:16.25px;font-family:'Arial Rounded MT Bold';-inkscape-font-specification:'Arial Rounded MT Bold, ';letter-spacing:-1.25px;fill:#ffffff;fill-opacity:1"
           d="m 218.42473,418.88062 q 0,1.05529 -0.54749,1.89636 -0.53955,0.84106 -1.58691,1.31714 -1.04736,0.47607 -2.48352,0.47607 -1.7218,0 -2.84058,-0.65063 -0.79345,-0.46814 -1.29333,-1.24573 -0.49195,-0.78552 -0.49195,-1.52344 0,-0.42847 0.29358,-0.72998 0.30152,-0.30945 0.76172,-0.30945 0.37293,0 0.62683,0.23804 0.26184,0.23804 0.44434,0.70618 0.22217,0.55542 0.47607,0.92834 0.26184,0.37293 0.72998,0.6189 0.46814,0.23803 1.22986,0.23803 1.04737,0 1.698,-0.484 0.65857,-0.49195 0.65857,-1.22193 0,-0.57922 -0.35706,-0.93628 -0.34912,-0.36499 -0.91247,-0.55542 -0.55542,-0.19043 -1.4917,-0.40466 -1.25366,-0.29358 -2.10266,-0.68237 -0.84107,-0.39673 -1.34094,-1.07117 -0.49195,-0.68237 -0.49195,-1.69006 0,-0.96009 0.52368,-1.70594 0.52369,-0.74585 1.51551,-1.14258 0.99182,-0.40466 2.33276,-0.40466 1.07117,0 1.84876,0.26978 0.78552,0.26184 1.30126,0.70617 0.51575,0.43641 0.75379,0.92041 0.23804,0.48401 0.23804,0.94422 0,0.42053 -0.30152,0.76172 -0.29358,0.33325 -0.73791,0.33325 -0.40467,0 -0.6189,-0.19837 -0.2063,-0.20629 -0.45227,-0.6665 -0.31738,-0.65857 -0.76172,-1.02356 -0.44433,-0.37292 -1.42822,-0.37292 -0.91248,0 -1.47583,0.40466 -0.55542,0.39673 -0.55542,0.96008 0,0.34912 0.19043,0.60303 0.19043,0.25391 0.52368,0.4364 0.33325,0.1825 0.67444,0.28565 0.34119,0.10314 1.12671,0.30151 0.98388,0.2301 1.77734,0.50781 0.80139,0.27771 1.35681,0.67444 0.56336,0.39673 0.87281,1.00769 0.31738,0.60303 0.31738,1.48377 z"
           inkscape:connector-curvature="0" />
      </g>
      <g
         id="text4647-4-2"
         style="font-style:normal;font-weight:normal;font-size:15.625px;line-height:125%;font-family:sans-serif;letter-spacing:-1.25px;word-spacing:0px;fill:#ffffff;fill-opacity:1;stroke:none;stroke-width:1px;stroke-linecap:butt;stroke-linejoin:miter;stroke-opacity:1"
         transform="translate(-156.60833,601.18153)">
        <path
           id="path4492"
           style="font-style:normal;font-variant:normal;font-weight:normal;font-stretch:normal;font-size:16.25px;font-family:'Arial Rounded MT Bold';-inkscape-font-specification:'Arial Rounded MT Bold, ';letter-spacing:-1.25px;fill:#ffffff;fill-opacity:1"
           d="m 179.65337,382.45758 2.63427,7.79968 2.64222,-7.85522 q 0.20629,-0.6189 0.30944,-0.85694 0.10315,-0.24597 0.34119,-0.4364 0.23804,-0.19836 0.65063,-0.19836 0.30152,0 0.55542,0.15076 0.26185,0.15075 0.40467,0.40466 0.15075,0.24597 0.15075,0.49988 0,0.17456 -0.0476,0.38086 -0.0476,0.19836 -0.11902,0.39673 -0.0714,0.19042 -0.14282,0.39672 l -2.81678,7.60132 q -0.15075,0.4364 -0.30151,0.83313 -0.15076,0.3888 -0.34912,0.69031 -0.19837,0.29358 -0.53162,0.48401 -0.32531,0.19043 -0.80139,0.19043 -0.47607,0 -0.80932,-0.19043 -0.32532,-0.1825 -0.53162,-0.48401 -0.19837,-0.30945 -0.34912,-0.69824 -0.15076,-0.3888 -0.30152,-0.8252 l -2.76916,-7.53784 q -0.0714,-0.2063 -0.15076,-0.40466 -0.0714,-0.19837 -0.12695,-0.42847 -0.0476,-0.2301 -0.0476,-0.38879 0,-0.40467 0.32532,-0.73792 0.32532,-0.33325 0.81726,-0.33325 0.60303,0 0.849,0.37292 0.25391,0.36499 0.51575,1.17432 z"
           inkscape:connector-curvature="0" />
        <path
           id="path4494"
           style="font-style:normal;font-variant:normal;font-weight:normal;font-stretch:normal;font-size:16.25px;font-family:'Arial Rounded MT Bold';-inkscape-font-specification:'Arial Rounded MT Bold, ';letter-spacing:-1.25px;fill:#ffffff;fill-opacity:1"
           d="m 187.94865,391.50299 0,-9.16443 q 0,-0.71411 0.32532,-1.07116 0.32532,-0.35706 0.84107,-0.35706 0.53161,0 0.85693,0.35706 0.33325,0.34912 0.33325,1.07116 l 0,9.16443 q 0,0.72205 -0.33325,1.0791 -0.32532,0.35706 -0.85693,0.35706 -0.50782,0 -0.84107,-0.35706 -0.32532,-0.36499 -0.32532,-1.0791 z"
           inkscape:connector-curvature="0" />
        <path
           id="path4496"
           style="font-style:normal;font-variant:normal;font-weight:normal;font-stretch:normal;font-size:16.25px;font-family:'Arial Rounded MT Bold';-inkscape-font-specification:'Arial Rounded MT Bold, ';letter-spacing:-1.25px;fill:#ffffff;fill-opacity:1"
           d="m 200.52068,389.24957 q 0,1.0553 -0.54749,1.89637 -0.53955,0.84106 -1.58691,1.31713 -1.04737,0.47608 -2.48352,0.47608 -1.72181,0 -2.84058,-0.65064 -0.79346,-0.46814 -1.29334,-1.24572 -0.49194,-0.78553 -0.49194,-1.52344 0,-0.42847 0.29358,-0.72998 0.30151,-0.30945 0.76172,-0.30945 0.37292,0 0.62683,0.23804 0.26184,0.23803 0.44434,0.70617 0.22216,0.55542 0.47607,0.92835 0.26184,0.37292 0.72998,0.61889 0.46814,0.23804 1.22986,0.23804 1.04736,0 1.698,-0.48401 0.65857,-0.49194 0.65857,-1.22192 0,-0.57922 -0.35706,-0.93628 -0.34912,-0.36499 -0.91247,-0.55542 -0.55542,-0.19043 -1.4917,-0.40466 -1.25367,-0.29358 -2.10267,-0.68238 -0.84106,-0.39672 -1.34094,-1.07116 -0.49194,-0.68238 -0.49194,-1.69007 0,-0.96008 0.52368,-1.70593 0.52368,-0.74585 1.5155,-1.14258 0.99183,-0.40466 2.33277,-0.40466 1.07116,0 1.84875,0.26977 0.78552,0.26185 1.30127,0.70618 0.51575,0.4364 0.75379,0.92041 0.23803,0.48401 0.23803,0.94422 0,0.42053 -0.30151,0.76171 -0.29358,0.33326 -0.73792,0.33326 -0.40466,0 -0.61889,-0.19837 -0.2063,-0.2063 -0.45227,-0.6665 -0.31739,-0.65857 -0.76172,-1.02356 -0.44434,-0.37293 -1.42822,-0.37293 -0.91248,0 -1.47583,0.40467 -0.55542,0.39673 -0.55542,0.96008 0,0.34912 0.19043,0.60303 0.19043,0.2539 0.52368,0.4364 0.33325,0.18249 0.67444,0.28564 0.34118,0.10315 1.1267,0.30152 0.98389,0.2301 1.77735,0.50781 0.80139,0.27771 1.35681,0.67444 0.56335,0.39673 0.8728,1.00769 0.31739,0.60303 0.31739,1.48376 z"
           inkscape:connector-curvature="0" />
        <path
           id="path4498"
           style="font-style:normal;font-variant:normal;font-weight:normal;font-stretch:normal;font-size:16.25px;font-family:'Arial Rounded MT Bold';-inkscape-font-specification:'Arial Rounded MT Bold, ';letter-spacing:-1.25px;fill:#ffffff;fill-opacity:1"
           d="m 201.38127,391.50299 0,-9.16443 q 0,-0.71411 0.32532,-1.07116 0.32532,-0.35706 0.84106,-0.35706 0.53162,0 0.85694,0.35706 0.33325,0.34912 0.33325,1.07116 l 0,9.16443 q 0,0.72205 -0.33325,1.0791 -0.32532,0.35706 -0.85694,0.35706 -0.50781,0 -0.84106,-0.35706 -0.32532,-0.36499 -0.32532,-1.0791 z"
           inkscape:connector-curvature="0" />
        <path
           id="path4500"
           style="font-style:normal;font-variant:normal;font-weight:normal;font-stretch:normal;font-size:16.25px;font-family:'Arial Rounded MT Bold';-inkscape-font-specification:'Arial Rounded MT Bold, ';letter-spacing:-1.25px;fill:#ffffff;fill-opacity:1"
           d="m 212.66789,383.05267 -2.5708,0 0,8.45032 q 0,0.72998 -0.32532,1.08704 -0.32531,0.34912 -0.84106,0.34912 -0.52368,0 -0.85693,-0.35706 -0.32532,-0.35705 -0.32532,-1.0791 l 0,-8.45032 -2.5708,0 q -0.60303,0 -0.89661,-0.26184 -0.29358,-0.26977 -0.29358,-0.70617 0,-0.45227 0.30152,-0.71412 0.30944,-0.26184 0.88867,-0.26184 l 7.49023,0 q 0.61096,0 0.90454,0.26978 0.30152,0.26977 0.30152,0.70618 0,0.4364 -0.30152,0.70617 -0.30151,0.26184 -0.90454,0.26184 z"
           inkscape:connector-curvature="0" />
      </g>
    </g>
  </g>
</svg>
