<?xml version="1.0" encoding="UTF-8" standalone="no"?>
<!-- Created with Inkscape (http://www.inkscape.org/) -->

<svg
   xmlns:dc="http://purl.org/dc/elements/1.1/"
   xmlns:cc="http://creativecommons.org/ns#"
   xmlns:rdf="http://www.w3.org/1999/02/22-rdf-syntax-ns#"
   xmlns:svg="http://www.w3.org/2000/svg"
   xmlns="http://www.w3.org/2000/svg"
   xmlns:sodipodi="http://sodipodi.sourceforge.net/DTD/sodipodi-0.dtd"
   xmlns:inkscape="http://www.inkscape.org/namespaces/inkscape"
   width="160"
   height="160"
   viewBox="0 0 42.333334 42.333333"
   version="1.1"
   id="svg8"
   inkscape:version="0.92.4 (5da689c313, 2019-01-14)"
   sodipodi:docname="Stairs.svg">
  <defs
     id="defs2" />
  <sodipodi:namedview
     id="base"
     pagecolor="#ffffff"
     bordercolor="#666666"
     borderopacity="1.0"
     inkscape:pageopacity="0.0"
     inkscape:pageshadow="2"
     inkscape:zoom="2.8"
     inkscape:cx="55.959208"
     inkscape:cy="40.107593"
     inkscape:document-units="mm"
     inkscape:current-layer="layer1"
     showgrid="false"
     inkscape:window-width="1781"
     inkscape:window-height="1057"
     inkscape:window-x="131"
     inkscape:window-y="-8"
     inkscape:window-maximized="1"
     units="px" />
  <metadata
     id="metadata5">
    <rdf:RDF>
      <cc:Work
         rdf:about="">
        <dc:format>image/svg+xml</dc:format>
        <dc:type
           rdf:resource="http://purl.org/dc/dcmitype/StillImage" />
        <dc:title></dc:title>
      </cc:Work>
    </rdf:RDF>
  </metadata>
  <g
     inkscape:label="Layer 1"
     inkscape:groupmode="layer"
     id="layer1"
     transform="translate(0,-254.66667)">
    <path
       style="opacity:1;fill:#ffffff;fill-opacity:1;stroke:#000000;stroke-width:0.93333328;stroke-miterlimit:4;stroke-dasharray:none;stroke-dashoffset:0;stroke-opacity:1"
       d="m 24.794002,266.41204 c -0.247346,0 -0.446482,0.19915 -0.446482,0.4465 v 3.48437 0.33348 0.44648 h -5.91524 c -0.247334,0 -0.445784,0.19915 -0.445784,0.44649 v 3.81716 0.44648 h -5.915241 c -0.247336,0 -0.446483,0.19915 -0.446483,0.4465 v 3.81785 0.44648 H 5.7095465 c -0.2473334,0 -0.4464786,0.19915 -0.4464786,0.44648 v 3.81785 c 0,0.24735 0.1991452,0.44649 0.4464786,0.44649 H 17.540002 c 0.247347,0 0.446494,-0.19914 0.446494,-0.44649 v -3.81785 -0.44648 h 5.91453 c 0.247347,0 0.446494,-0.19915 0.446494,-0.44648 v -3.81785 -0.4465 h 5.915225 c 0.247336,0 0.446482,-0.19914 0.446482,-0.44648 v -3.81716 -0.44649 h 5.91454 c 0.247332,0 0.446479,-0.19915 0.446479,-0.44648 v -3.81785 c 0,-0.24735 -0.199147,-0.4465 -0.446479,-0.4465 z"
       id="rect1661-9-4-4"
       inkscape:connector-curvature="0" />
  </g>
</svg>
