<?xml version="1.0" encoding="UTF-8" standalone="no"?>
<!-- Created with Inkscape (http://www.inkscape.org/) -->

<svg
   xmlns:dc="http://purl.org/dc/elements/1.1/"
   xmlns:cc="http://creativecommons.org/ns#"
   xmlns:rdf="http://www.w3.org/1999/02/22-rdf-syntax-ns#"
   xmlns:svg="http://www.w3.org/2000/svg"
   xmlns="http://www.w3.org/2000/svg"
   xmlns:sodipodi="http://sodipodi.sourceforge.net/DTD/sodipodi-0.dtd"
   xmlns:inkscape="http://www.inkscape.org/namespaces/inkscape"
   width="120"
   height="120"
   viewBox="0 0 31.749999 31.749999"
   version="1.1"
   id="svg8"
   inkscape:version="0.92.4 (5da689c313, 2019-01-14)"
   sodipodi:docname="Stairs_Coloured.svg">
  <defs
     id="defs2">
    <pattern
       y="0"
       x="0"
       height="6"
       width="6"
       patternUnits="userSpaceOnUse"
       id="EMFhbasepattern" />
  </defs>
  <sodipodi:namedview
     id="base"
     pagecolor="#ffffff"
     bordercolor="#666666"
     borderopacity="1.0"
     inkscape:pageopacity="0.0"
     inkscape:pageshadow="2"
     inkscape:zoom="0.7"
     inkscape:cx="-1.7525671"
     inkscape:cy="239.33584"
     inkscape:document-units="mm"
     inkscape:current-layer="layer1"
     showgrid="false"
     units="px"
     inkscape:window-width="1781"
     inkscape:window-height="1057"
     inkscape:window-x="131"
     inkscape:window-y="-8"
     inkscape:window-maximized="1" />
  <metadata
     id="metadata5">
    <rdf:RDF>
      <cc:Work
         rdf:about="">
        <dc:format>image/svg+xml</dc:format>
        <dc:type
           rdf:resource="http://purl.org/dc/dcmitype/StillImage" />
        <dc:title></dc:title>
      </cc:Work>
    </rdf:RDF>
  </metadata>
  <g
     inkscape:label="Layer 1"
     inkscape:groupmode="layer"
     id="layer1"
     transform="translate(0,-265.25001)">
    <g
       id="g877"
       transform="matrix(0.75000002,0,0,0.75000002,5.3503833e-8,74.25002)">
      <circle
         r="21.166666"
         cy="275.83331"
         cx="21.166666"
         id="path1343-9"
         style="opacity:1;fill:#c500ff;fill-opacity:1;stroke:none;stroke-width:0.16779144;stroke-miterlimit:4;stroke-dasharray:none;stroke-dashoffset:0;stroke-opacity:1" />
      <path
         inkscape:connector-curvature="0"
         id="rect1661-9-4"
         d="m 24.794001,266.41202 c -0.247346,0 -0.446482,0.19915 -0.446482,0.4465 v 3.48437 0.33348 0.44648 h -5.91524 c -0.247334,0 -0.445784,0.19915 -0.445784,0.44649 v 3.81716 0.44648 h -5.915241 c -0.247336,0 -0.446483,0.19915 -0.446483,0.4465 v 3.81785 0.44648 H 5.7095459 c -0.2473334,0 -0.4464786,0.19915 -0.4464786,0.44648 v 3.81785 c 0,0.24735 0.1991452,0.44649 0.4464786,0.44649 H 17.540001 c 0.247347,0 0.446494,-0.19914 0.446494,-0.44649 v -3.81785 -0.44648 h 5.91453 c 0.247347,0 0.446494,-0.19915 0.446494,-0.44648 v -3.81785 -0.4465 h 5.915225 c 0.247336,0 0.446482,-0.19914 0.446482,-0.44648 v -3.81716 -0.44649 h 5.91454 c 0.247332,0 0.446479,-0.19915 0.446479,-0.44648 v -3.81785 c 0,-0.24735 -0.199147,-0.4465 -0.446479,-0.4465 z"
         style="opacity:1;fill:#ffffff;fill-opacity:1;stroke:#000000;stroke-width:0.93333328;stroke-miterlimit:4;stroke-dasharray:none;stroke-dashoffset:0;stroke-opacity:1" />
    </g>
  </g>
</svg>
